<svg height='100px' width='100px'  fill="#000000" xmlns="http://www.w3.org/2000/svg" xmlns:xlink="http://www.w3.org/1999/xlink" version="1.1" x="0px" y="0px" viewBox="0 0 32 32" style="enable-background:new 0 0 32 32;" xml:space="preserve"><g><g><path d="M24.8,32h-18C5.2,32,4,30.8,4,29.3s1.2-2.8,2.8-2.8h18c0.4,0,0.8,0.3,0.8,0.8v4C25.5,31.7,25.2,32,24.8,32z M6.8,28    c-0.7,0-1.3,0.6-1.3,1.3s0.6,1.3,1.3,1.3H24V28H6.8z"></path></g><g><path d="M27.3,32h-2.5c-0.4,0-0.8-0.3-0.8-0.8s0.3-0.8,0.8-0.8h2.5c0.4,0,0.8,0.3,0.8,0.8S27.7,32,27.3,32z"></path></g><g><g><path d="M4.8,30.2c-0.2,0-0.3-0.1-0.5-0.2C4.1,29.9,4,29.7,4,29.5v-0.2c0-0.4,0.3-0.8,0.8-0.8s0.8,0.3,0.8,0.8c0,0,0,0.1,0,0.1     c0,0.4-0.2,0.7-0.6,0.8l0,0C4.9,30.2,4.8,30.2,4.8,30.2z"></path></g><g><path d="M4.8,30C4.3,30,4,29.7,4,29.3V3.9C4,1.7,5.7,0,7.9,0h19.4C27.7,0,28,0.3,28,0.8v26.5c0,0.4-0.3,0.8-0.8,0.8H6.8     c-0.7,0-1.3,0.6-1.3,1.3C5.5,29.7,5.2,30,4.8,30z M7.9,1.5c-1.3,0-2.4,1.1-2.4,2.4v22.9c0.4-0.2,0.8-0.3,1.3-0.3h19.8v-25H7.9z"></path></g></g><g><path d="M16,23.7c-0.4,0-0.8-0.3-0.8-0.8v-18c0-0.4,0.3-0.8,0.8-0.8s0.8,0.3,0.8,0.8v18C16.8,23.3,16.4,23.7,16,23.7z"></path></g><g><path d="M21,10.1H11c-0.4,0-0.8-0.3-0.8-0.8s0.3-0.8,0.8-0.8H21c0.4,0,0.8,0.3,0.8,0.8S21.5,10.1,21,10.1z"></path></g></g></svg>