<svg height='100px' width='100px'  fill="#000000" xmlns="http://www.w3.org/2000/svg" xmlns:xlink="http://www.w3.org/1999/xlink" version="1.1" x="0px" y="0px" viewBox="0 0 100 100" enable-background="new 0 0 100 100" xml:space="preserve"><g><path d="M37.6,55.1c-1.3,0-2.3,1.1-2.3,2.3v3.8c0,1.3,1.1,2.3,2.3,2.3s2.3-1.1,2.3-2.3v-3.8C40,56.1,38.9,55.1,37.6,55.1z"></path><path d="M85,61.5L68.1,43.1c-0.4-0.5-1.1-0.8-1.7-0.8H50.2v-1.8c0.1,0,0.2,0,0.3,0c0.6,0,1.2-0.2,1.7-0.7c0.9-0.9,0.9-2.4,0-3.3   L40,24.4v-5.2h1.6c1.3,0,2.3-1.1,2.3-2.3s-1.1-2.3-2.3-2.3H40v-0.7c0-1.3-1.1-2.3-2.3-2.3s-2.3,1.1-2.3,2.3v0.7h-1.6   c-1.3,0-2.3,1.1-2.3,2.3s1.1,2.3,2.3,2.3h1.6v5.2L23.1,36.6c-0.9,0.9-0.9,2.4,0,3.3c0.5,0.5,1.3,0.7,1.9,0.7v10.8   c0,0.1,0,0.1,0,0.2l-10,10c-0.9,0.9-0.9,2.4,0,3.3c0.9,0.9,2.4,0.9,3.3,0l1.5-1.5v22.7c0,1.3,1.1,2.3,2.3,2.3h30.9h30.2   c1.3,0,2.3-1.1,2.3-2.3V63.1C85.6,62.5,85.4,61.9,85,61.5z M45.5,36.6v10.3l-6.2-6.2c-0.9-0.9-2.4-0.9-3.3,0l-6.2,6.2V36.6l7.9-7.9    M40.1,83.8h-4.9c0,0,0,0,0,0V73.4h4.9L40.1,83.8C40.1,83.8,40.1,83.8,40.1,83.8z M44.8,83.8C44.8,83.8,44.8,83.8,44.8,83.8l0-12.7   c0-1.3-1.1-2.3-2.3-2.3h-9.6c-1.3,0-2.3,1.1-2.3,2.3v12.7c0,0,0,0,0,0h-6V58.8l13.1-13.1l13.1,13.1v25.1H44.8z M55.4,83.8V63.5   l1.5,1.5c0.5,0.5,1.1,0.7,1.7,0.7c0,0,0,0,0.1,0c0,0,0,0,0.1,0h0L81,65.5v18.4H55.4z"></path></g></svg>