<svg height='100px' width='100px'  fill="#000000" xmlns="http://www.w3.org/2000/svg" xmlns:xlink="http://www.w3.org/1999/xlink" version="1.1" x="0px" y="0px" viewBox="0 0 100 100" enable-background="new 0 0 100 100" xml:space="preserve"><path d="M57,59c-0.316,0-0.618,0.014-0.929,0.02c-0.073-0.006-0.144-0.008-0.217,0.004c-5.371,0.109-9.953,0.977-13.689,2.281  c0.264-1.295,0.793-2.141,1.211-2.309C43.753,58.842,44,58.477,44,58.068V57.9c0-0.408-0.247-0.773-0.624-0.928  C42.799,56.74,42,55.229,42,53c0-1.791,0.517-3.125,1.035-3.699C51.072,47.085,57,39.73,57,30.998v-7.883  c0-1.434,0.939-2.61,2.337-2.928c0.554-0.126,1.113-0.189,1.663-0.189c0.553,0,1-0.447,1-1V17c0-0.553-0.447-1-1-1H12  c-0.553,0-1,0.447-1,1v1.997c0,0.553,0.447,1,1,1c0.554,0,1.112,0.063,1.662,0.189C15.061,20.503,16,21.68,16,23.115v7.883  c0,8.731,5.927,16.087,13.964,18.304C30.482,49.874,31,51.209,31,53c0,2.229-0.8,3.738-1.376,3.973C29.246,57.127,29,57.492,29,57.9  v0.168c0,0.408,0.246,0.773,0.624,0.928C30.2,59.23,31,60.742,31,62.969c0,2.186-2.021,6.705-3.729,7.035  c-0.138-0.006-0.272,0.016-0.399,0.064C21.315,70.643,17,75.385,17,81.002V81.5c0,0.928,0.269,1.398,6.327,1.953  C25.563,83.656,30.247,84,36.5,84c6.258,0,10.939-0.342,13.173-0.547C55.731,82.9,56,82.43,56,81.5v-0.498  c0-5.617-4.315-10.359-9.871-10.934c-0.12-0.045-0.247-0.064-0.378-0.059c-1.596-0.277-3.472-4.24-3.722-6.557  c1.462-0.551,3.087-1.033,4.878-1.424c5.067,1.814,8.397,3.682,12.311,8.594C59.411,70.867,59.701,71,60,71  c0.11,0,0.222-0.018,0.33-0.055C60.731,70.805,61,70.426,61,70c0-4.385-1.761-7.293-3.011-8.99c1.449,0.016,2.859,0.07,4.225,0.158  c0.027,0.01,0.047,0.029,0.076,0.037c2.244,0.602,9.033,4.783,11.928,8.418C74.411,69.865,74.701,70,75,70  c0.11,0,0.222-0.02,0.33-0.057C75.731,69.803,76,69.424,76,69c0-2.277-0.275-4.102-0.874-5.709C82.583,65.438,87,68.787,87,72  c0,2.57-2.546,5-5.239,5H64h-4h-1c-0.553,0-1,0.447-1,1s0.447,1,1,1h1h4h17.761C85.55,79,89,75.664,89,72C89,64.711,74.944,59,57,59  z M18,30.998V28h37v2.998c0,0.338-0.031,0.669-0.051,1.002H18.051C18.031,31.667,18,31.335,18,30.998z M14.105,18.237  c-0.365-0.084-0.734-0.146-1.105-0.186V18h47v0.051c-0.369,0.04-0.738,0.102-1.105,0.185C56.602,18.757,55,20.763,55,23.115V26H18  v-2.885C18,20.762,16.397,18.756,14.105,18.237z M18.282,34h36.436c-1.209,6.749-6.402,12.125-13.06,13.593  c-0.116,0.026-0.232,0.056-0.351,0.079c-0.468,0.093-0.943,0.165-1.425,0.218c-0.116,0.014-0.231,0.023-0.349,0.033  C39.027,47.968,38.517,48,37.997,48h-2.994c-0.519,0-1.029-0.032-1.537-0.078c-0.116-0.01-0.232-0.02-0.35-0.033  c-0.481-0.053-0.957-0.125-1.426-0.218c-0.115-0.023-0.229-0.052-0.345-0.077C24.687,46.126,19.491,40.75,18.282,34z M33.294,49.914  C33.861,49.965,34.431,50,35.003,50h2.994c0.573,0,1.145-0.035,1.714-0.087c0.145-0.013,0.288-0.026,0.432-0.043  c0.118-0.014,0.237-0.02,0.355-0.035C40.178,50.761,40,51.85,40,53c0,1.768,0.41,3.336,1.093,4.426  c-2.664,0.789-5.935,0.725-9.082-0.176C32.63,56.168,33,54.676,33,53c0-1.15-0.178-2.24-0.498-3.165  c0.117,0.016,0.235,0.021,0.354,0.035C33.001,49.887,33.147,49.901,33.294,49.914z M53.999,80.861C52.192,81.279,45.562,82,36.5,82  c-9.055,0-15.688-0.721-17.499-1.141c0.072-4.553,3.606-8.373,8.135-8.811c2.978,1.309,6.053,1.975,9.178,1.975  c0.99,0,1.984-0.066,2.983-0.199c0.547-0.072,0.932-0.574,0.859-1.123c-0.072-0.547-0.576-0.934-1.123-0.859  c-3.193,0.424-6.353,0.088-9.417-0.973C31.714,68.875,33,64.84,33,62.969c0-1.338-0.234-2.561-0.644-3.551  c1.563,0.373,3.148,0.563,4.683,0.563c1.226,0,2.409-0.135,3.531-0.371C40.208,60.564,40,61.715,40,62.969  c0,1.859,1.271,5.857,3.346,7.865c-0.47,0.154-0.94,0.303-1.403,0.426c-0.534,0.143-0.852,0.691-0.71,1.225  c0.119,0.447,0.523,0.742,0.966,0.742c0.085,0,0.172-0.01,0.258-0.033c1.12-0.297,2.261-0.689,3.396-1.146  C50.387,72.477,53.928,76.303,53.999,80.861z M50.716,61.385c1.498-0.188,3.091-0.307,4.774-0.352  c0.098,0.129,0.195,0.258,0.318,0.416c0.829,1.061,2.191,2.801,2.834,5.463C56.119,64.273,53.675,62.689,50.716,61.385z   M72.699,62.773c0.571,1.051,0.938,2.174,1.131,3.527c-1.772-1.654-3.987-3.277-6.043-4.559c1.724,0.248,3.349,0.557,4.876,0.912  C72.678,62.693,72.679,62.734,72.699,62.773z"></path></svg>