<svg height='100px' width='100px'  fill="#000000" xmlns="http://www.w3.org/2000/svg" data-name="Layer 1" viewBox="0 0 100 100" x="0px" y="0px"><title>Assorted_05</title><path d="M93.7835,49.2829,52.8745,8.8757a4.09,4.09,0,0,0-5.749,0L6.2165,49.2829a4.0905,4.0905,0,0,0,2.8744,7.0012h9.0737v31.93a4.0911,4.0911,0,0,0,4.091,4.0909H47.2394a4.091,4.091,0,0,0,2.8924-6.9838l-9.1935-9.194,5.3453-5.3459v4.7211a4.0911,4.0911,0,0,0,6.9833,2.8929l10.11-10.11a4.0908,4.0908,0,0,0-5.7848-5.7858l-3.127,3.1271V60.9044a4.0911,4.0911,0,0,0-6.9834-2.8929L32.26,73.234a4.0906,4.0906,0,0,0,0,5.7859l5.1026,5.1031H26.3464v-31.93a4.0911,4.0911,0,0,0-4.0908-4.091H19.0545L50,17.5359,80.9455,48.1023H77.7444a4.0911,4.0911,0,0,0-4.0908,4.091V88.2139a4.0909,4.0909,0,1,0,8.1818,0v-31.93h9.0737a4.0905,4.0905,0,0,0,2.8744-7.0012Z"></path><circle cx="58.408" cy="51.4387" r="6.2715"></circle></svg>