<svg height='100px' width='100px'  fill="#000000" xmlns="http://www.w3.org/2000/svg" viewBox="0 0 96 96" x="0px" y="0px"><title>SEO outline</title><path d="M52.65,48a15.11,15.11,0,1,0-15.1-15.1A15.12,15.12,0,0,0,52.65,48Zm0-28.21a13.11,13.11,0,1,1-13.1,13.11A13.11,13.11,0,0,1,52.65,19.77Z"></path><path d="M52.65,39.32a2.77,2.77,0,0,1-2.76-2.76H48.05a4.62,4.62,0,0,0,3.68,4.51v1.78h1.85V41.07A4.61,4.61,0,0,0,52.65,32a2.76,2.76,0,1,1,2.77-2.76h1.84a4.62,4.62,0,0,0-3.68-4.51V22.9H51.73v1.78a4.61,4.61,0,0,0,.92,9.12,2.76,2.76,0,1,1,0,5.52Z"></path><path d="M80,57.4a4.24,4.24,0,0,0-.88.09.45.45,0,0,1-.11,0h0a3.47,3.47,0,0,0-.57.19l-15.17,5a4.53,4.53,0,0,0,.08-.75,4.18,4.18,0,0,0-4.16-4.17H49c-.19-.32-.4-.63-.61-.92a10,10,0,0,0-8-4H27.12V49.77a1,1,0,0,0-1-1H12.87a1,1,0,0,0-1,1V73.36a1,1,0,0,0,1,1H26.12a1,1,0,0,0,1-1v-2l20.43,6.14h0l0,0a11.18,11.18,0,0,0,9.7-1.06L81.51,65.43h0a4.17,4.17,0,0,0-1.56-8Zm-54.84,15H13.87V50.77H25.12Zm55.47-8.71s0,0,0,0l-24.09,11h0l-.09,0a9.18,9.18,0,0,1-8.08.91h0L27.12,69.32V54.86H40.39a7.92,7.92,0,0,1,6.39,3.2,8.84,8.84,0,0,1,.69,1.09,1,1,0,0,0,.92.62H59.13a2.17,2.17,0,0,1,2.16,2.17,2.14,2.14,0,0,1-.7,1.6,2.1,2.1,0,0,1-1.46.56H40.79a1,1,0,0,0,0,2H59.15a4.06,4.06,0,0,0,2.33-.74l18-5.91A1.7,1.7,0,0,1,80,59.4a2.17,2.17,0,0,1,2.17,2.16A2.21,2.21,0,0,1,80.59,63.65Z"></path></svg>