<svg height='100px' width='100px'  fill="#000000" xmlns="http://www.w3.org/2000/svg" xmlns:xlink="http://www.w3.org/1999/xlink" version="1.1" x="0px" y="0px" viewBox="0 0 100 100" enable-background="new 0 0 100 100" xml:space="preserve"><path d="M73.2,43.2c-1.1-1.1-2.5-1.9-4-2.2c1.5-1.5,2.3-3.6,2.3-5.7c0-2.2-0.9-4.3-2.4-5.8c-1.1-1.1-2.6-1.9-4.1-2.2  c6.1-4.8,9-13.1,6.5-21l-0.1-0.2c-0.4-1.2-1.7-1.9-2.9-1.5l-0.2,0.1c-5,1.5-9,4.9-11.4,9.5c-0.5,1-1,2.1-1.3,3.2  c-0.8-1.5-1.7-2.9-2.9-4.2L52.6,13c-0.9-1-2.4-1-3.3-0.2L49.1,13c-3.8,3.5-6.1,8.3-6.3,13.5c-0.1,2.5,0.3,5,1.1,7.3  c-0.7-0.2-1.5-0.3-2.2-0.3c-2.2,0-4.3,0.9-5.8,2.4c-1.6,1.6-2.4,3.6-2.4,5.8c0,0.3,0,0.5,0,0.8c-0.3,0-0.5,0-0.8,0  c-2.2,0-4.3,0.9-5.8,2.4c-1.6,1.6-2.4,3.6-2.4,5.8c0,2.2,0.9,4.3,2.4,5.8c0.6,0.6,1.4,1.2,2.1,1.5c-1,1.4-1.5,3-1.5,4.7  c0,2.2,0.9,4.3,2.4,5.8c1.2,1.2,2.6,1.9,4.2,2.3c-2.1,3.2-1.7,7.6,1.1,10.4c0.5,0.5,1.2,1,1.8,1.4c-0.9,1.4-1.4,3-1.4,4.6  c0,2.2,0.9,4.3,2.4,5.8c1.6,1.6,3.6,2.4,5.8,2.4c2.2,0,4.3-0.9,5.8-2.4c1.6-1.6,2.4-3.6,2.4-5.8c0,0,0-0.1,0-0.1c0.1,0,0.2,0,0.4,0  c2.2,0,4.3-0.9,5.8-2.4c1.6-1.6,2.4-3.6,2.4-5.8s-0.9-4.3-2.4-5.8c-0.6-0.6-1.3-1.1-2-1.5c1-1.6,1.5-3.5,1.3-5.3c0.3,0,0.5,0,0.8,0  c2.2,0,4.3-0.9,5.8-2.4c1.8-1.8,2.6-4.2,2.4-6.6c0.3,0,0.5,0,0.8,0c2.2,0,4.3-0.9,5.8-2.4c1.6-1.6,2.4-3.6,2.4-5.8  C75.6,46.9,74.8,44.8,73.2,43.2z M57.6,44.5c0,1-0.4,1.9-1,2.5c-1.4,1.4-3.7,1.4-5.1,0c-1.4-1.4-1.4-3.7,0-5.1c0.7-0.7,1.6-1,2.5-1  c1,0,1.9,0.4,2.5,1C57.3,42.7,57.6,43.6,57.6,44.5z M47.4,56.2c-1.4,1.4-3.7,1.4-5.1,0c-1.4-1.4-1.4-3.7,0-5.1c0.7-0.7,1.6-1,2.5-1  s1.9,0.4,2.5,1C48.8,52.5,48.8,54.8,47.4,56.2z M55,36.2C55,36.2,55,36.3,55,36.2C55,36.3,55,36.3,55,36.2C55,36.3,55,36.2,55,36.2z   M38.5,72.9c0.7-0.7,1.6-1,2.5-1c1,0,1.9,0.4,2.5,1c0.7,0.7,1,1.6,1,2.5s-0.4,1.9-1,2.5c-1.4,1.3-3.7,1.3-5.1,0  C37.1,76.6,37.1,74.3,38.5,72.9z M46.8,69.6c-1.4-1.4-1.4-3.7,0-5.1c0.7-0.7,1.6-1,2.5-1s1.9,0.4,2.5,1c1.4,1.4,1.4,3.7,0,5.1  C50.5,71,48.2,71,46.8,69.6z M66.8,35.4c0,1-0.4,1.9-1,2.5c-1.4,1.4-3.7,1.4-5.1,0c-1.4-1.4-1.4-3.7,0-5.1c0.7-0.7,1.6-1,2.5-1  c1,0,1.9,0.4,2.5,1C66.4,33.5,66.8,34.4,66.8,35.4z M61,16.3c1.5-2.8,3.7-5,6.5-6.3c0.9,6.3-2.4,12.5-8,15.3  C59.1,22.2,59.6,19.1,61,16.3z M47.5,26.7c0.1-3.1,1.3-6.1,3.2-8.5c3.5,5.3,3.1,12.3-0.8,17.2C48.2,32.8,47.3,29.8,47.5,26.7z   M39.1,39.2c0.7-0.7,1.6-1,2.5-1c1,0,1.9,0.4,2.5,1c0.7,0.7,1,1.6,1,2.5c0,1-0.4,1.9-1,2.5c-1.3,1.4-3.7,1.4-5.1,0  c-0.7-0.7-1-1.6-1-2.5C38.1,40.8,38.4,39.9,39.1,39.2z M30.1,48.2c0.7-0.7,1.6-1,2.5-1s1.9,0.4,2.5,1c1.4,1.4,1.4,3.7,0,5.1  c-1.4,1.3-3.7,1.3-5.1,0c-0.7-0.7-1-1.6-1-2.5C29.1,49.8,29.4,48.9,30.1,48.2z M32.2,62.8c0-1,0.4-1.9,1-2.5c0.7-0.7,1.6-1,2.5-1  c1,0,1.9,0.4,2.5,1c1.4,1.4,1.4,3.7,0,5.1c-1.3,1.4-3.7,1.4-5.1,0C32.5,64.7,32.2,63.8,32.2,62.8z M46.4,89.8  c-1.4,1.3-3.7,1.3-5.1,0c-0.7-0.7-1-1.6-1-2.5c0-1,0.4-1.9,1-2.5c0.7-0.7,1.6-1,2.5-1c1,0,1.9,0.4,2.5,1c0.7,0.7,1,1.6,1,2.5  S47,89.1,46.4,89.8z M55,81.4c-1.4,1.3-3.7,1.3-5.1,0c-1.4-1.4-1.4-3.7,0-5.1c0.7-0.7,1.6-1,2.5-1c1,0,1.9,0.4,2.5,1  c0.7,0.7,1,1.6,1,2.5S55.6,80.8,55,81.4z M60.9,60.6c-1.4,1.3-3.7,1.3-5.1,0c-0.7-0.7-1-1.6-1-2.5s0.4-1.9,1-2.5  c0.7-0.7,1.6-1,2.5-1c1,0,1.9,0.4,2.5,1C62.3,56.9,62.3,59.2,60.9,60.6z M69.9,51.6c-1.4,1.3-3.7,1.3-5.1,0c-1.4-1.4-1.4-3.7,0-5.1  c0.7-0.7,1.6-1,2.5-1c1,0,1.9,0.4,2.5,1c0.7,0.7,1,1.6,1,2.5S70.6,50.9,69.9,51.6z"></path></svg>