<svg height='100px' width='100px'  fill="#000000" xmlns="http://www.w3.org/2000/svg" xmlns:xlink="http://www.w3.org/1999/xlink" version="1.1" x="0px" y="0px" viewBox="0 0 100 100" enable-background="new 0 0 100 100" xml:space="preserve"><path d="M88.61,27.522C88.079,26.581,87.081,26,86,26H62.499L52.572,9.456c-1.084-1.808-4.061-1.808-5.145,0  L37.501,26H14c-1.081,0-2.079,0.581-2.61,1.522c-0.533,0.94-0.519,2.095,0.038,3.022L23.101,50L11.428,69.456  c-0.557,0.927-0.571,2.081-0.038,3.022C11.921,73.419,12.919,74,14,74h23.501l9.926,16.544C47.97,91.448,48.947,92,50,92  c1.053,0,2.03-0.552,2.572-1.456L62.499,74H86c1.081,0,2.079-0.581,2.61-1.522c0.533-0.94,0.519-2.095-0.038-3.022L76.899,50  l11.674-19.456C89.129,29.617,89.144,28.462,88.61,27.522z M50,16.831L55.501,26H44.499L50,16.831z M19.298,32h14.603L26.6,44.169  L19.298,32z M19.298,68L26.6,55.831L33.901,68H19.298z M50,83.169L44.499,74h11.002L50,83.169z M59.101,68H40.899l-10.8-18l10.8-18  h18.203l10.8,18L59.101,68z M80.702,68H66.099L73.4,55.831L80.702,68z M73.4,44.169L66.099,32h14.603L73.4,44.169z"></path></svg>