<svg height='100px' width='100px'  fill="#000000" xmlns="http://www.w3.org/2000/svg" xmlns:xlink="http://www.w3.org/1999/xlink" xml:space="preserve" version="1.1" style="shape-rendering:geometricPrecision;text-rendering:geometricPrecision;image-rendering:optimizeQuality;" viewBox="0 0 846.66 846.66" x="0px" y="0px" fill-rule="evenodd" clip-rule="evenodd"><defs><style type="text/css">
   
    .fil0 {fill:#000000;fill-rule:nonzero}
   
  </style></defs><g><path class="fil0" d="M412.96 486.38l-389.55 -389.62c-49.05,-49.14 25.77,-121.32 73.54,-73.55l427.42 427.42c9.34,-2.63 18.48,-5.95 27.5,3.05l73.3 73.25c7.73,7.73 7.94,20.14 0.64,28.13l15.58 15.58c7.99,-7.31 20.4,-7.09 28.13,0.64l135.17 135.18c6.2,6.19 7.57,15.39 4.11,22.92l24.51 24.5c7.95,7.96 7.95,20.86 0,28.81l-50.46 50.46c-7.96,7.95 -20.86,7.95 -28.81,0l-24.51 -24.51c-7.52,3.46 -16.72,2.1 -22.92,-4.1l-135.18 -135.18c-7.73,-7.73 -7.94,-20.13 -0.64,-28.13l-15.58 -15.57c-7.99,7.3 -20.4,7.08 -28.13,-0.65l-41.66 -41.66 -8.67 8.66c-18.97,18.97 -47.77,-9.84 -28.81,-28.8l8.67 -8.67 -41.66 -41.66c-7.23,-7.23 -7.89,-18.53 -1.99,-26.5zm-101.77 11.79c0,-26.82 40.74,-26.82 40.74,0l0 83.39c0,26.82 -40.74,26.82 -40.74,0l0 -83.39zm174.28 -210.59c-18.96,18.97 -47.77,-9.84 -28.8,-28.8l65.06 -65.07c18.96,-18.96 47.77,9.85 28.81,28.81l-65.07 65.06zm-0.65 71.18c-26.81,0 -26.81,-40.74 0,-40.74l83.4 0c26.82,0 26.82,40.74 0,40.74l-83.4 0zm-58.59 -99.33c0,26.81 -40.74,26.81 -40.74,0l0 -83.4c0,-26.82 40.74,-26.82 40.74,0l0 83.4zm227.2 434.31l10.21 -10.21c18.96,-18.96 47.76,9.85 28.8,28.81l-10.21 10.21 38.78 38.78 40.48 -40.47 -106.37 -106.37 -40.48 40.47 38.79 38.78zm127.45 65.33l-21.65 21.66 9.21 9.21 21.66 -21.65 -9.22 -9.22zm-183.86 -175.19l-12.99 12.99 15.55 15.54 12.99 -12.98 -15.55 -15.55zm-345.07 -113.87c18.96,-18.96 47.77,9.84 28.81,28.81l-65.07 65.06c-18.96,18.96 -47.77,-9.84 -28.8,-28.8l65.06 -65.07zm0.65 -71.18c26.82,0 26.82,40.74 0,40.74l-83.4 0c-26.82,0 -26.82,-40.74 0,-40.74l83.4 0zm201.77 71.49l24.93 -7.01 -411.74 -411.91c-10.12,-9.31 -25.84,6.21 -15.42,16.63l402.23 402.29zm87.12 111.48l40.47 -40.47 -50.47 -50.47 -63.18 17.77 73.18 73.17z"></path></g></svg>