<svg height='100px' width='100px'  fill="#000000" xmlns="http://www.w3.org/2000/svg" data-name="Layer 1" viewBox="0 0 64 64" x="0px" y="0px"><title>muslim islam calendar ramadan month</title><g><path d="M49,13H46V11a3,3,0,0,0-6,0v2H24V11a3,3,0,0,0-6,0v2H15a5.0059,5.0059,0,0,0-5,5V51a5.0059,5.0059,0,0,0,5,5H49a5.0059,5.0059,0,0,0,5-5V18A5.0059,5.0059,0,0,0,49,13Zm-7-2a1,1,0,0,1,2,0v6a1,1,0,0,1-2,0ZM20,11a1,1,0,0,1,2,0v6a1,1,0,0,1-2,0Zm-8,7a3.0033,3.0033,0,0,1,3-3h3v2a3,3,0,0,0,6,0V15H40v2a3,3,0,0,0,6,0V15h3a3.0033,3.0033,0,0,1,3,3v4H12ZM49,54H15a3.0033,3.0033,0,0,1-3-3V24H52V51A3.0033,3.0033,0,0,1,49,54Z"></path><path d="M40.3564,41.1426a7,7,0,0,1-8.5927-10.7881,2.4054,2.4054,0,0,0,.28-2.8486,2.5646,2.5646,0,0,0-2.747-1.2251A13.0076,13.0076,0,1,0,43.8594,44.334a2.4434,2.4434,0,0,0-.58-2.8345A2.4894,2.4894,0,0,0,40.3564,41.1426Zm1.6788,2.3725A11.0068,11.0068,0,1,1,29.709,28.2378a.6311.6311,0,0,1,.1269-.0137.5692.5692,0,0,1,.4786.2862.4066.4066,0,0,1-.045.5156,8.934,8.934,0,0,0-2.23,6.8242,9.0612,9.0612,0,0,0,7.5175,8.0366,8.9708,8.9708,0,0,0,5.7608-.99.4954.4954,0,0,1,.6055.0727A.45.45,0,0,1,42.0352,43.5151Z"></path><path d="M44.168,30.9517l-2.91-.4956L39.87,28.0068a1.0411,1.0411,0,0,0-1.74,0l-1.3877,2.4493-2.91.4956a.9994.9994,0,0,0-.5341,1.6972l2.0156,1.99-.3926,2.7177a.999.999,0,0,0,1.4053,1.0523L39,37.186l2.6738,1.2232a.9946.9946,0,0,0,.416.0908.9986.9986,0,0,0,.9893-1.1431l-.3926-2.7177,2.0156-1.99a.9994.9994,0,0,0-.5341-1.6972Zm-3.2451,2.6191a.9964.9964,0,0,0-.2872.8545l.2022,1.4023-1.4219-.65a.9984.9984,0,0,0-.832,0l-1.4219.65.2022-1.4023a.9964.9964,0,0,0-.2872-.8545l-.9873-.9746,1.4561-.2481a1.0007,1.0007,0,0,0,.7021-.4926L39,30.5283l.752,1.3272a1.0007,1.0007,0,0,0,.7021.4926l1.4561.2481Z"></path></g></svg>