<svg xmlns="http://www.w3.org/2000/svg" viewBox="0 0 72.07 76"><g id="Layer_2" data-name="Layer 2"><g id="Layer_1-2" data-name="Layer 1"><path d="M35.54,76c-7.48-2.7-15-5.26-22.41-8.15A75.5,75.5,0,0,1,1.76,62.33c-2.68-1.61-2.07-3.93.29-5.52,6.5-4.37,13-8.73,19.66-12.83,1.49-.91,3.64-.75,5.48-1.09l.69,1.93L12.38,56.14c2,.9,3.32,1.84,4.76,2.09,11.07,1.9,22.26,2.6,33.08-.81,15.12-4.76,19.18-12.75,16.84-30-1.39-10.2-7.55-16-16.68-19.1A48,48,0,0,0,12.8,10.63c-2.55-2.25-1.72-3.54.81-5.09C37.52-9.17,69.53,7.08,71.23,34.85a21.3,21.3,0,0,0,.84,3.62v2c-1.31,6.28-3.41,12.1-9.07,15.91C47,67.13,30,66.62,12.58,60.56a44.58,44.58,0,0,0-6-1.24L6.16,61a27.22,27.22,0,0,0,2.52,1.16c7.69,2.67,15.51,5,23,8.14,2,.84,3.23,3.77,4.81,5.75Z"/></g></g></svg>