<svg xmlns="http://www.w3.org/2000/svg" viewBox="0 0 78.27 76.86"><g id="Layer_2" data-name="Layer 2"><g id="Layer_1-2" data-name="Layer 1"><path d="M78.26,36.13C77.77,61.54,64.18,77.07,41,76.86,19.14,76.66-1.12,64.66.05,41.19,1.21,18,18.59.83,42.53,0,61.68-.63,78.59,15.49,78.26,36.13Zm-35.12,35c7,.49,14-3.58,19.09-9.62C70.5,51.71,75.57,40.75,71.55,27,68.75,17.37,59,6.33,49.4,6A72,72,0,0,0,29.75,8.45C17.19,11.59,3.73,32.65,7,48c1.19,5.61,2.51,11.34,7.3,14.69C22.34,68.34,31.61,70.94,43.14,71.17Z"/><path d="M37.18,64.19C27.28,63,18.27,59.74,14,49.23a9.84,9.84,0,0,1-.82-5.62c.39-1.56,2.19-2.78,3.37-4.15,1.09,1.28,3,2.48,3.15,3.85.75,8.28,6.76,11.94,13.33,13.34,9.47,2,19,1.09,25.84-7.3,1.28-1.57,1.53-4.05,2.93-5.4s3.49-1.54,5.29-2.25c0,1.53.29,3.19-.2,4.56C61.94,60.08,50.31,63.05,37.18,64.19Z"/><path d="M55.73,20.75c4.58,2.65,5.32,6.91,3.3,11-.79,1.6-4.34,2.23-6.72,2.47-.88.08-2.6-2.08-2.91-3.45C48.25,25.77,49.94,23.34,55.73,20.75Z"/><path d="M34.69,26.42c.36,3.95-1.21,6.68-4.83,6.92s-5.31-2-5.14-6c.15-3.69,1.61-7.14,4.83-7.27C32.35,20,35.81,22.31,34.69,26.42Z"/></g></g></svg>