<svg xmlns="http://www.w3.org/2000/svg" viewBox="0 0 116 48.45"><g id="Layer_2" data-name="Layer 2"><g id="Layer_1-2" data-name="Layer 1"><path d="M116,11.08c-9.51,6.3-19.37,6-29.36,1.36-2.5-1.17-5.25-2.48-7-4.49-3-3.45-5.11-2.19-8.34-.41A51.83,51.83,0,0,1,57.42,13C51.49,14.28,46.6,11.57,42.71,6.9c-.76-.91-3-1.35-4.28-1-3.72,1.18-7.27,2.92-10.91,4.37C19.16,13.62,11,11.42,2.89,9.19,1.68,8.86,1,6.86,0,5.63c1.38-.38,2.77-1.1,4.15-1.08,8,.15,16,1.09,23.87.48,4.16-.32,8.05-3.45,12.21-4.88a4.94,4.94,0,0,1,4.4,1.08c5.34,6.85,12.64,8.85,20.55,5C68.4,4.61,71.27,2.3,74.51.77c1.25-.58,3.72-.52,4.57.31,9.1,8.84,19.79,10.76,31.83,7.9,1.59-.37,3.39.07,5.09.14Z"/><path d="M111.52,44.16c-1.7,1.16-3.26,3-5.12,3.35-10.9,2.14-20.85.06-29.68-7a6.43,6.43,0,0,0-5.53-.73c-8.92,4.26-17.64,4.33-26.72.44-1.6-.68-4.44.16-6.14,1.21-8.53,5.29-17.53,8.3-27.69,6.49a27.76,27.76,0,0,1-6.05-2c-2.82-1.24-3.06-3.08-.7-5.34,13,5.53,24.86,2.9,36.16-4.89a7.53,7.53,0,0,1,6.12-.44c8,3.3,16,3.51,23.93.18,3.79-1.59,6.62-2.18,10.14,1.13,7,6.58,16.08,6.65,25.11,6.22,1.77-.08,3.55,0,5.32,0Z"/></g></g></svg>