<svg xmlns="http://www.w3.org/2000/svg" viewBox="0 0 93.11 124.66"><g id="Layer_2" data-name="Layer 2"><g id="Layer_1-2" data-name="Layer 1"><path d="M44.68,104.24c-3.69,6.55-6.78,12.32-10.21,17.88-.69,1.11-2.69,1.41-4.08,2.07,0-1.56-.48-3.38.15-4.63a144.32,144.32,0,0,1,7.72-13.74c5.17-8,2-16.71,3.12-25.28-3.2-.85-6.13-1.31-8.81-2.39C21.54,73.72,10.86,57.8,11,45.77c0-1.57,1.39-4.21,2.55-4.47,2.81-.63,2.45,2,2.6,3.91.64,7.82,6.14,19.87,10,23,0-4-.41-8.61.08-13.13C27.74,40.47,40.08,33.5,53.33,39.51c8.56,3.88,12.12,9.06,11.66,17C64.56,64,58.31,71.8,50.7,74.41c-1.49.52-3,1-4.76,1.53,5.41,3.41,15.42,2.06,19.47-2.71,6.28-7.4,10-16.16,12.14-25.53.59-2.52,1-5,4-3.91.86.3,1.54,3.73,1,5.17A227,227,0,0,1,72.26,71.71c-3.49,6.41-9.77,9-17,9.14-2.61,0-5.22,0-8.5,0,0,6.12-.08,11.83.08,17.54,0,1,1.08,1.92,1.72,2.84l14.37,20.49c-2.34,4-4.21,3.73-6.44.22C52.83,116.16,48.91,110.55,44.68,104.24ZM43.49,69.71c7.77.72,13-3.48,16.66-10.11,3-5.46,2.51-9.62-1.79-12.05C52.64,44.31,47.22,41.64,39.63,44,30.31,47,28.79,53.49,29.19,63c.19,4.41,4.46,6.48,13,6.75C42.53,69.72,42.86,69.71,43.49,69.71Z"/><path d="M48,6.54A28,28,0,0,1,48,11.48c-.16.84-1.2,1.52-1.84,2.27-.68-.72-1.88-1.39-1.94-2.16a36.86,36.86,0,0,1,0-8.4C44.38,2,46,1.06,46.94,0a30.71,30.71,0,0,1,1.12,3.57,15.48,15.48,0,0,1,0,3Z"/><path d="M86.25,18.1c-1-.76-1.91-1.12-2.08-1.72a3.29,3.29,0,0,1,.3-2.63,28,28,0,0,1,5.17-5.14c.55-.38,2.28.91,3.47,1.44Z"/><path d="M4.43,19.05C3.24,18.16,1.63,17.5,1,16.31a11.11,11.11,0,0,1-1-5c0-.41,2.09-1.33,2.16-1.23A17.79,17.79,0,0,1,4.5,14a29.37,29.37,0,0,1,1,4.33Z"/></g></g></svg>