<svg xmlns="http://www.w3.org/2000/svg" viewBox="0 0 119.82 107.57"><g id="Layer_2" data-name="Layer 2"><g id="Layer_1-2" data-name="Layer 1"><path d="M119.82,13.35c-4.55,7.65-11.37,8.83-19.18,3-2.35-1.77-3.73-2.19-6.32-.24-4.15,3.12-8.84,5.53-13.26,8.21-3.08-2.36-3.09-4.17.14-6s6.27-4.15,9.49-6.09c3.65-2.2,7-4.25,8-9.13.63-3.21,9.09-4.14,13.6-1.38,2.83,1.73,5.06,4.47,7.55,6.76Zm-12.76-9c-5.06-.62-4.75,2.85-5.19,5.68-.85,5.52,3.57,4.8,6.64,5.4,5,1,5.73-2.74,5.92-6.24C114.75,3.13,109.34,5.73,107.06,4.31Z"/><path d="M69.7,76.58c5.86,3,7.2,7.47,7.27,12.32.07,4.68-4.06,10.55-7.68,11.77-5.2,1.74-13.8-4-12.86-9.49,1.79-10.64-7.26-14.64-11.61-21.5-.09-.14-.25-.37-.33-.35-5.38,1.42-11.42,1.81-15.9,4.67-3,1.89-3.69,7.3-5.27,10.82.37.65.42.85.54.92C31.31,90,33.43,93.46,31.28,98,28,105,19.42,109.22,13,107c-3.9-1.38-6.21-4.62-5.57-8.35.69-4,.18-9.4,6.2-10.53a7.79,7.79,0,0,0,1.92-.32c2.37-1.2,8.39-17.42,7.55-20-1.9-5.71-2.16-11.19,1.53-16.48.72-1,.42-3.12,0-4.51-1.72-5.21-3.7-10.34-5.64-15.65-1.93,0-3.89.09-5.85,0-6-.3-11.55-5-12.65-10.62C-1,13,1.18,8.72,8,5.52,10.53,4.3,12.87,2,15.5,1.64c5.63-.66,10.71,1,14,6.3C33.11,13.86,31,19,27.36,23.87a43.25,43.25,0,0,1-5,5C26.76,37.22,31,45.24,35.29,53.48c-1.48.33-2.92,1-4.33.89-5.71-.31-5.9,3.37-5.75,7.49.19,4.94,4,4.38,6.84,4a28.66,28.66,0,0,0,10.57-3.16C44.51,61.57,45.82,58.4,46,56c.09-1-3.29-2.59-5.3-3.32-2.7-1-5.13-1.75-3.7-5.62,4.57-.87,9,.51,11,4.36,1.41,2.68,0,6.75.18,10.18.07,1.9.13,4.2,1.17,5.58a87.43,87.43,0,0,0,9,9.8c1,1,2.76,1.1,4.18,1.6s3.1,1.06,4,1.37c-2.28,3.67-4.34,6.47-5.83,9.54-.91,1.9-2,5,1.14,5.64,2.36.5,5.83.06,7.51-1.44,3.6-3.21,3.76-7.77,2.1-12.29C71,80.13,70.52,78.82,69.7,76.58ZM13.54,25.64c6.92,1.1,13.5-7.31,13.78-13.23a5.45,5.45,0,0,0-2.49-4c-5-2.78-9.4-1.72-14.26,1.39-4.57,2.94-8.15,6.39-7,10.48C4.88,25.18,9.14,25.65,13.54,25.64ZM27.67,92c-3.4.53-6.92-6.23-9.58,1-.05.13-1.13-.14-1.73-.19-4.57-.41-4.27,3.16-4.71,5.93-.54,3.47,2,3.57,4.4,3.62C21.33,102.48,26.3,98.34,27.67,92Z"/><path d="M31.2,21.61c6.51-1.21,12.4.77,17.89,4,3.78,2.22,6.64,2.49,9.85-1.23,3-3.47,5.53-2.8,7.25,0-3.1,3.56-6.21,6.52-8.48,10-.94,1.44-.89,4.79.16,5.89s4.13,1.26,6,.7c4.72-1.45,9.32-3.34,11.12-8.77,1-3,.71-4.87-2.5-6.34-1.58-.72-2.5-2.89-3.27-4.75,11.39,2.27,13.13,11.25,4.76,21,1.35,4.18,2.69,8.31,4,12.26,2.76,0,5.35-.33,7.78.16,1,.2,1.63,2.19,2.51,3.49-7.11,1.73-7.56,2.37-6.72,10,3.45,0,7.46,1,10.4-.33,2.25-1,3.58-4.88,4.5-7.75,1-3.3-2.05-3.25-4.17-4.06-1.49-.58-2.67-2-4.43-3.37,6.4-2.58,10-.51,12.37,6,1.88,5.2-1,12.45-6,14.74-5.59,2.61-13.52.43-15.85-4.83-3.25-7.35-6-14.92-9.18-22.88-1.16.26-2.87.69-4.6,1-6.15,1.06-10.89-2.43-11.27-8.65-.22-3.49-1.23-5.93-4.75-7-4.85-1.5-9.72-3-14.47-4.74-1.51-.56-2.7-2-4-3Z"/></g></g></svg>