<svg xmlns="http://www.w3.org/2000/svg" viewBox="0 0 57.1 85.24"><g id="Layer_2" data-name="Layer 2"><g id="Layer_1-2" data-name="Layer 1"><path d="M0,81.11c1.24-.26,2.68-1,3.69-.68,11,4,21.93,1.3,33.69-1.66C32.92,75.92,28.65,72.7,24,70.33c-3.12-1.57-4.21-3.23-4.07-6.72.31-7.85.09-15.72.09-23.73-3.19-.67-5.91-1.1-8.54-1.84C5.19,36.28,2.54,31,0,25.74V20.8C2.5,15.45,3.68,9.48,8.75,5.47,19.07-2.7,26.57-1.18,37,6.46c8.28,6,9.63,17.88,4.34,26-2.49,3.84-5.74,5.54-16.12,8,2.1,1.75,3.41,3.77,4.94,4,11.61,1.38,17.22.22,22.93-8.74a11,11,0,0,1,4-3.27c-3.49,11.46-13,16.06-32.48,16.06,0,5.38-.26,10.79.17,16.15.12,1.42,2.17,2.91,3.62,4,5.07,3.65,10.25,7.12,15.05,11.65C28.83,84.72,14.6,87.88,0,82.1ZM23.09,35.6l.21-.9c2,0,3.93.14,5.88,0,7.35-.63,12-5.62,12.13-12.77.12-9.71-13.69-19.41-23.63-16.61a19.36,19.36,0,0,0-14.11,18c-.11,4,1.17,7.37,5.06,8.66C13.34,33.49,18.26,34.41,23.09,35.6Z"/></g></g></svg>