<svg xmlns="http://www.w3.org/2000/svg" viewBox="0 0 107.79 82.83"><defs><style>.cls-1{fill:#fff;}</style></defs><g id="Layer_2" data-name="Layer 2"><g id="Layer_1-2" data-name="Layer 1"><path d="M88.28,0C89.43,3.15,91.43,5,95,5.28a22.09,22.09,0,0,1,6.53,2.12c5.74,2.43,7.13,5.56,5.74,11.6-1.78,7.75-3.08,15.61-5.1,23.29-2,7.47-7.66,10.14-15,10-1.78,0-3.56,0-5.64,0V60c1.64.11,3.32.59,4.82.26,5.71-1.24,9.91,2.35,14.47,4.47,3.71,1.72,4,7.27.67,10-1.81,1.5-4.32,3-6.53,3-9.86.07-19.75-.08-29.58-.83-3.32-.26-6.48-2.53-10.59-4.24-2.65,1.53-6.35,3.84-10.2,5.86-11.71,6.16-24,4.45-36.13,2C3.5,79.56.2,74.21,0,69.07-.45,55.38,5.89,45.29,16.77,37.64c2.81-2,5.72-3.85,8.69-5.57C34,27.1,43,25.27,52.6,28.91a26.92,26.92,0,0,0,3.32.68c0-3.58.25-6.86-.06-10.09-.59-6.13,1.73-10.73,7.2-13.26C68.33,3.81,73.92,2.05,79.36,0ZM24.44,77.6c15.2.27,27.28-5.22,34.91-18.78,3.13-5.55,6.64-11.23.72-17.27-.65-.67-.71-1.92-1.36-2.59-1.6-1.63-3.14-3.73-5.14-4.49-20.16-7.58-42.5,8.79-48,23.67C.69,71.2,2,76.07,15.58,77,18.53,77.16,21.49,77.39,24.44,77.6ZM61.1,25.25c.26,1.74.21,3.9.93,5.76A59.34,59.34,0,0,0,67,41.49c1.46,2.3,3.58,5,6,5.72A43.32,43.32,0,0,0,87,49.15c2.92-.11,7-1.55,8.41-3.75,3.78-5.75,5.2-12.51,5-20.15ZM83.49,21c5.11-.37,10.87-.56,16.54-1.35,1.79-.24,3.35-2.09,5-3.21-1.37-1.24-2.54-2.93-4.15-3.64-6-2.63-12.11-5-18.21-7.34a3.11,3.11,0,0,0-1.92.11C74.92,7.41,69,9.08,63.32,11.4c-1.75.71-2.75,3.23-4.1,4.91,2,1.17,3.85,3.08,5.94,3.36C71,20.45,76.93,20.55,83.49,21ZM59.67,68.59c7.09,5.86,36.19,5.94,40.42.82C86.53,65.17,73.14,63.4,59.67,68.59Zm15.48-8.33c2.65-8.77,1.62-10.1-8.1-10.77L63.73,60.26Z"/><path class="cls-1" d="M75.15,60.26H63.73l3.32-10.77C76.77,50.16,77.8,51.49,75.15,60.26Z"/><path d="M24.69,46.79c1.82-1.85,2.91-3.92,4-3.91,7,0,14.09.26,21.09.92,2.3.22,4.78,1.72,3.49,4.76Z"/><path d="M36.26,67.1c-5-.81-9.9-1.7-14.88-2.41-2.59-.37-5.26-.21-7.82-.7a3.82,3.82,0,0,1-2.25-2.43c-.15-.47,1.4-2.12,2-2.05,6.75.82,13.51,1.71,20.19,3,1.36.27,2.39,2.28,3.57,3.48Z"/><path d="M19.18,52c12.22-1.76,21.06.76,22.25,6.16-6.51-.76-12.92-1.37-19.27-2.39C21.14,55.65,20.42,53.67,19.18,52Z"/></g></g></svg>