<svg xmlns="http://www.w3.org/2000/svg" viewBox="0 0 54.81 70.26"><g id="Layer_2" data-name="Layer 2"><g id="Layer_1-2" data-name="Layer 1"><path d="M39.91,13.93c-2.34,12.71,2.77,20.23,9.14,26.39,10.35,10,5.57,20.56-5,25.73-13,6.39-26,5.57-38.05-3C.76,59.3-1.56,53.18,1.12,46.91A94.32,94.32,0,0,1,11.93,28.5c3.86-5.25,9.16-9.41,13.19-14.55,2.51-3.22,3.81-7.37,5.71-11.08C31.38,1.8,32,.09,32.79,0a3.68,3.68,0,0,1,3.06,1.81C37.65,6.56,39.1,11.43,39.91,13.93ZM19.12,65.13c-5.55-4-8.17-7.9-5.82-13.78a54.12,54.12,0,0,1,15.1-20.6c4.06,6,7.57,11.87,11.82,17.18,3.72,4.64,6.88,8.84,1.52,14.67,9.41-5,10.61-12.65,3.8-19.88-7.7-8.18-13.43-17-10.83-29.1a12.26,12.26,0,0,0-.29-3.43c-6,6.38-12,12.19-17.29,18.51A74.92,74.92,0,0,0,7.59,42.9C2.06,53.81,5.74,61.27,19.12,65.13Zm7.41-30.81c-3.43,6.16-7.26,12-10,18.35-2.28,5.21-.59,7.66,4.06,9.63l7-16.53,11.85,15c3.08-3.25,2.58-6.28,0-9.57C35.33,46.11,31.48,40.85,26.53,34.32ZM27.87,51c-1.16,3.35-2.41,6-2.87,8.78-.16,1,1.56,3.3,2.44,3.31,2.44,0,4.88-.83,7.32-1.33-.36-1.44-.38-3.12-1.17-4.27C32.24,55.51,30.4,53.83,27.87,51Z"/></g></g></svg>