<svg xmlns="http://www.w3.org/2000/svg" viewBox="0 0 66.27 85.7"><g id="Layer_2" data-name="Layer 2"><g id="Layer_1-2" data-name="Layer 1"><path d="M66.27,55.39c-3.88,9-12.08,9.93-20.22,10.69-3.89.37-7.84.06-13,.06.92,5.21,1.84,9.74,2.47,14.3a24.75,24.75,0,0,1-.37,5.26c-1.7-1.2-4.39-2.06-4.93-3.66-1.66-4.93-2.49-10.14-3.65-15.24-6-1.19-12-2.41-18.12-3.59-3-.6-4.2-2.21-2.71-5.92l20.82,3.06V42.16C20.16,40.91,14,39.65,7.72,38.52,4.14,37.87,1,36.68.18,32.66-.75,28,2.06,24.78,5.69,23.15A93.06,93.06,0,0,1,21.91,17.9c3.11-.75,3.82-1.72,3.48-4.95C24.93,8.65,23.22,4,26.78,0h3c.77,5.58,1.54,11.16,2.32,16.84l16.54,1c2.22.13,5.08-.43,4.65,3.24s-3.18,2.42-5.35,2.3L33,22.55C31.68,36.15,32.51,37,44.77,38.73,54.62,40.09,63.56,43,66.27,54.4ZM33.76,61.57c8.7-1.4,16.72-2.57,24.67-4.09a4.64,4.64,0,0,0,3-3.15c.12-1.51-.7-3.85-1.88-4.6-7.82-4.9-16.58-6.08-25.82-6.25ZM26.34,36.06V23.61c-8.62-.23-15.64,2.44-22.14,6.67l.07,1.64Z"/></g></g></svg>