<svg xmlns="http://www.w3.org/2000/svg" viewBox="0 0 85.58 69.87"><g id="Layer_2" data-name="Layer 2"><g id="Layer_1-2" data-name="Layer 1"><path d="M85.58,2.85V61.06c-2.08.29-4.14.72-6.22.85-15.7,1-31.44,1.63-47.11,3-6.13.53-12.09,2.8-18.19,3.9C2.17,71,2,70.85,1.5,58.8.87,44.25-.57,29.62.24,15.13,1,1.15-2.49,2.78,11.63,2.79c.83,0,1.65,0,2.47-.06C35.74,1.77,57.38.72,79,0,81.18-.07,83.39,1.86,85.58,2.85ZM82.18,57V5.8c-11.06,0-21.85.14-32.62-.07-4.09-.08-5.05,1.69-4.94,5.33.28,9.33.13,18.69.54,28,.26,6.11,1.21,12.2,1.81,18ZM6.26,64.2a94,94,0,0,0,9.51-.71c7.56-1.39,15-3.23,22.62-4.47,3.58-.59,2.92-2.68,2.84-5q-.63-21.14-1.16-42.28c0-1.72,0-3.44,0-5.48L6.26,8.05Z"/><path d="M48.92,49.55C50.36,47,51,44.69,51.8,44.63c7.68-.62,15.38-.88,23.08-1.12.57,0,1.17.92,2.67,2.19C68.29,49.88,59.26,47.91,48.92,49.55Z"/><path d="M80.13,15.8c-8.59.5-17.18,1-25.78,1.39a2.85,2.85,0,0,1-2.06-1.94c0-.83,1.08-2.34,1.76-2.37,8.14-.45,16.29-.73,24.45-.93a16.8,16.8,0,0,1,3.88.82Z"/><path d="M70.52,32.18c-3.67.53-6.68,1.14-9.71,1.34A61.85,61.85,0,0,1,52,33.35a2.82,2.82,0,0,1-1.89-1.61c-.18-.48.55-1.91.89-1.92,6.08-.08,12.16,0,18.24.05C69.38,29.87,69.53,30.38,70.52,32.18Z"/><path d="M30.9,47c-6.21.25-12.42.59-18.64.62-.78,0-1.95-1.63-2.2-2.67-.16-.64,1.1-2.32,1.73-2.33,5.69-.05,11.39.09,17.07.38,1,.05,1.93,1.05,2.9,1.61Z"/><path d="M33.69,18.22c-1.15,1.08-2.21,3-3.47,3.1-6.32.77-12.69,1.09-19,1.57l-.91-1.3c.74-1,1.38-2.67,2.24-2.78,6.61-.9,13.26-1.48,19.89-2.16Z"/><path d="M22.63,33.48a62.53,62.53,0,0,1-6.85-.09c-.8-.09-1.49-1.18-2.23-1.81.68-.68,1.31-1.89,2-1.95,4.54-.4,9.11-.69,13.67-.67,1.07,0,2.13,1.37,3.2,2.1-1,.79-1.9,2.09-3,2.26a43.41,43.41,0,0,1-6.85.11Z"/></g></g></svg>