<svg xmlns="http://www.w3.org/2000/svg" viewBox="0 0 102.97 129.74"><g id="Layer_2" data-name="Layer 2"><g id="Layer_1-2" data-name="Layer 1"><path d="M25.25,12.07c3.09-2.34,4.86-.35,6.41,2,2.49,3.77,4.88,7.61,8,12.46,2.83-8.14,5.25-15.06,7.63-22C48.07,2.2,48.73-.86,52,.23c1.57.53,2.9,2.92,3.59,4.75,1.82,4.86,3.23,9.88,5.29,16.35,4-5,6.86-8.92,10.11-12.48,1.27-1.39,3.4-2,5.14-3,.44,1.88,1.44,3.82,1.24,5.63-1.14,10.29-2.52,20.55-4,30.8a4.79,4.79,0,0,1-1.81,3.23C59,52.09,46,54.72,32.45,49.13c-2-.83-4.29-3.58-4.54-5.67C26.68,33,26.08,22.52,25.25,12.07ZM51.1,8.76c-.77,1.88-1.5,3.51-2.12,5.18-1.74,4.62-3.25,9.33-5.19,13.85-2,4.74-4.9,5-8.07.91-1.1-1.42-2.18-2.87-4.15-5.45.48,7.52.79,13.44,1.32,19.33a3.3,3.3,0,0,0,1.94,2.32c10.72,2.77,21.39,3.64,31.54-2.07a4.87,4.87,0,0,0,2.24-3.16c.94-7.82,1.63-15.67,2.4-23.5-2.53,2.4-4.3,5.44-6.42,8.21a7.52,7.52,0,0,1-4.05,2.91c-.78.13-2.3-1.87-2.9-3.18C55.38,19.18,53.37,14.14,51.1,8.76Z"/><path d="M10.34,110.87c-.29-2.59-.8-5.16-.85-7.75Q9.24,87.57,9.29,72c0-1,1.11-1.91,1.7-2.86.69,1,1.91,2,2,3.08.69,10.69,1.12,21.4,1.8,32.1.16,2.52,1,5,1.8,9L27.92,96l2.14,1.27c-2,3.84-4.24,7.59-5.95,11.56-2,4.61-3.54,9.4-5.22,14.14-.44,1.24-.46,2.64-1,3.82-1.55,3.51-4.72,4-6.4.64-2.89-5.84-5-12.06-7.43-18.12-1.34-3.32-2.85-6.58-4-10-.3-.88.43-2.11.69-3.18,1,.62,2.36,1,2.78,1.89,2,4.24,3.79,8.6,5.65,12.92Z"/><path d="M51.61,74c5.9,1.53,11.22-3.78,17.28-.45-3.19,4.64-8,4.73-12,5-5.31.42-6.32,2.69-6.34,7.49-.06,11.85-.61,23.71-1.26,35.55-.1,1.67-1.86,3.25-2.85,4.87-.83-1.66-2.4-3.33-2.37-5,.23-13.3.76-26.59,1.21-40.26l-17.42,2c-2-4.23.84-4.55,3.16-5,3.55-.63,7.15-1,10.73-1.49,3.76-.52,5.22-2.7,5.2-6.45a42.85,42.85,0,0,1,1-8.27c.18-.93,1.17-1.71,1.79-2.56.64,1,1.78,1.9,1.84,2.9C51.75,66.09,51.61,69.86,51.61,74Z"/><path d="M103,96.29c-10-3.18-8.06-13.37-14.86-18.92-1.56,16.14-3,31.51-4.54,47-3.72,1.06-4.24-1.38-3.95-4.4q1.78-18.14,3.67-36.25a11.05,11.05,0,0,0-.41-5.67c-2.72,4.71-5.35,9.47-8.22,14.08-.77,1.24-2.28,2-3.45,3-.43-1.81-1.75-4-1.14-5.35a157.06,157.06,0,0,1,9.11-17.39c3-5,9.38-4.24,11.94.87C94.77,80.6,98.59,87.81,103,96.29Z"/></g></g></svg>