<svg xmlns="http://www.w3.org/2000/svg" viewBox="0 0 33.76 94.06"><g id="Layer_2" data-name="Layer 2"><g id="Layer_1-2" data-name="Layer 1"><path d="M0,2C6.18-1.21,12.7.32,19.1.67c3,.16,6,.93,9.09,1.16,4.79.36,6.19,1.86,5.32,7C32.47,14.91,31,21,29.87,27.08,27.91,38,26.09,49,24.24,59.91c-.74,4.38-4.19,7.3-8.94,6-1.94-.53-3.91-4-4.41-6.46-3.7-18-7-36.16-10.48-54.25C.39,5.11.14,5.06,0,5Zm17,58.3c3.25.51,4.12-1.3,4.6-4.16C23.7,43.6,26,31.08,28.25,18.54c.68-3.8,1.33-7.6,2.08-11.9L5.87,4.81Z"/><path d="M15.27,94.06c-8.1,0-11-2.38-11-8.91s5.59-12.39,11.8-12.47c6.88-.1,12.7,4.49,12.72,10C28.81,89.61,23.46,94.1,15.27,94.06ZM15,89.28l.35.8c2.71-1.14,5.65-1.92,8.08-3.5,3.46-2.26,3.1-6.4-.72-7.12a29.9,29.9,0,0,0-12.13.45c-1.57.38-3,3.62-3.35,5.75C7.07,86.55,10,88.1,11.66,89,12.57,89.47,13.86,89.21,15,89.28Z"/></g></g></svg>