<svg height='100px' width='100px'  fill="#000000" xmlns="http://www.w3.org/2000/svg" xmlns:xlink="http://www.w3.org/1999/xlink" version="1.1" x="0px" y="0px" viewBox="0 0 50 50" enable-background="new 0 0 50 50" xml:space="preserve"><g><path d="M42.6,7.3H7.4c-2.4,0-4.3,1.9-4.3,4.3v23.8H2c-0.6,0-1,0.4-1,1v0.8c0,3,2.5,5.5,5.5,5.5h37c3,0,5.5-2.5,5.5-5.5v-0.8   c0-0.6-0.4-1-1-1h-1.1V11.6C46.9,9.3,45,7.3,42.6,7.3z M5.1,11.6c0-1.3,1-2.3,2.3-2.3h35.2c1.3,0,2.3,1,2.3,2.3v23.8h-8.5   c-1.7-3.6-5.4-6.1-9.5-6.1h-3.8c-4.1,0-7.8,2.4-9.5,6.1H5.1V11.6z M34.2,35.4H15.8c1.6-2.5,4.3-4.1,7.3-4.1h3.8   C29.9,31.4,32.7,32.9,34.2,35.4z M47,37.4c-0.1,1.8-1.6,3.2-3.5,3.2h-37c-1.8,0-3.3-1.4-3.5-3.2H47z"></path><path d="M25.2,28.3c4.1,0,7.5-5.1,7.5-9.2c0-4.1-3.3-7.4-7.5-7.4c-4.1,0-7.5,3.3-7.5,7.4C17.7,23.3,21.1,28.3,25.2,28.3z    M25.2,13.7c3,0,5.5,2.4,5.5,5.4c0,3.2-2.6,7.2-5.5,7.2c-2.8,0-5.5-4.1-5.5-7.2C19.7,16.1,22.2,13.7,25.2,13.7z"></path></g></svg>