<svg height='100px' width='100px'  fill="#000000" xmlns="http://www.w3.org/2000/svg" data-name="Layer 1" viewBox="0 0 100 100" x="0px" y="0px"><title>Artboard 16</title><path d="M18,69.26A10.75,10.75,0,0,0,28.74,80H71.26a10.74,10.74,0,0,0,9.33-16.07L58.2,24.76a9.45,9.45,0,0,0-16.4,0L19.42,63.93A10.76,10.76,0,0,0,18,69.26Zm6.62-2.35L47,27.74a3.45,3.45,0,0,1,6,0L75.38,66.91A4.74,4.74,0,0,1,71.26,74H28.74a4.74,4.74,0,0,1-4.12-7.09Z"></path><rect x="47" y="41" width="6" height="16"></rect><circle cx="50" cy="65" r="3"></circle></svg>