<svg height='100px' width='100px'  fill="#000000" xmlns="http://www.w3.org/2000/svg" xmlns:xlink="http://www.w3.org/1999/xlink" version="1.1" x="0px" y="0px" viewBox="0 0 100 100" enable-background="new 0 0 100 100" xml:space="preserve"><path d="M60.5,41.8h-8.2v-2.9c5.4-5.6,8-10.4,8-15.3c0-5-2.7-10-8.5-15.8l-0.2-0.2c-0.9-0.9-2.4-0.9-3.3,0l-0.2,0.2  c-5.8,5.8-8.5,10.8-8.4,15.8c0,4.8,2.6,9.7,8,15.2v3h-8.2c-1.3,0-2.3,1.1-2.3,2.3v46.6c0,1.3,1.1,2.3,2.3,2.3h21  c1.3,0,2.3-1.1,2.3-2.3V44.1C62.9,42.8,61.8,41.8,60.5,41.8z M44.4,23.6c0-3.3,1.8-6.8,5.6-10.9c3.8,4.2,5.7,7.7,5.7,10.9  c0,2.5-1.1,5.2-3.3,8.1v-3.9c0-1.3-1.1-2.3-2.3-2.3s-2.3,1.1-2.3,2.3v3.8C45.4,28.7,44.4,26.1,44.4,23.6z M58.2,88.4H41.8V46.5h1.5  V61c0,1.3,1.1,2.3,2.3,2.3c1.3,0,2.3-1.1,2.3-2.3V46.5h1.9v5.8c0,1.3,1.1,2.3,2.3,2.3s2.3-1.1,2.3-2.3v-5.8h3.6V88.4z"></path></svg>