<svg height='100px' width='100px'  xmlns="http://www.w3.org/2000/svg" viewBox="0 0 24 24" fill="none" x="0px" y="0px"><path fill-rule="evenodd" clip-rule="evenodd" d="M12 18C15.3138 18 18 15.3137 18 12C18 8.68629 15.3138 6 12 6C8.68634 6 6.00005 8.68629 6.00005 12C6.00005 15.3137 8.68634 18 12 18ZM12 19C15.866 19 19 15.866 19 12C19 8.13401 15.866 5 12 5C8.13406 5 5.00005 8.13401 5.00005 12C5.00005 15.866 8.13406 19 12 19Z" fill="black"></path><path fill-rule="evenodd" clip-rule="evenodd" d="M7.77644 3.55279C8.02343 3.42929 8.32377 3.5294 8.44726 3.77639L9.44726 5.77639C9.57076 6.02338 9.47065 6.32372 9.22366 6.44721C8.97667 6.57071 8.67633 6.47059 8.55284 6.22361L7.55284 4.22361C7.42934 3.97662 7.52945 3.67628 7.77644 3.55279Z" fill="black"></path><path fill-rule="evenodd" clip-rule="evenodd" d="M6.05284 4.72361C5.92934 4.47662 6.02945 4.17628 6.27644 4.05279L9.27644 2.55279C9.52343 2.42929 9.82377 2.5294 9.94726 2.77639C10.0708 3.02338 9.97065 3.32372 9.72366 3.44721L6.72366 4.94721C6.47667 5.07071 6.17633 4.97059 6.05284 4.72361Z" fill="black"></path><path fill-rule="evenodd" clip-rule="evenodd" d="M14.0528 21.2236C13.9293 20.9766 14.0295 20.6763 14.2764 20.5528L17.2764 19.0528C17.5234 18.9293 17.8238 19.0294 17.9473 19.2764C18.0708 19.5234 17.9706 19.8237 17.7237 19.9472L14.7237 21.4472C14.4767 21.5707 14.1763 21.4706 14.0528 21.2236Z" fill="black"></path><path fill-rule="evenodd" clip-rule="evenodd" d="M8.67212 20.7886C8.51996 21.0191 8.20981 21.0825 7.97936 20.9304L5.18033 19.0823C4.94988 18.9302 4.88641 18.62 5.03857 18.3896C5.19072 18.1591 5.50087 18.0957 5.73132 18.2478L8.53035 20.0959C8.7608 20.248 8.82427 20.5582 8.67212 20.7886Z" fill="black"></path><path fill-rule="evenodd" clip-rule="evenodd" d="M18.9615 5.61043C18.8094 5.84087 18.4992 5.90434 18.2688 5.75219L15.4697 3.90411C15.2393 3.75196 15.1758 3.44181 15.328 3.21136C15.4801 2.98092 15.7903 2.91745 16.0207 3.0696L18.8198 4.91768C19.0502 5.06983 19.1137 5.37999 18.9615 5.61043Z" fill="black"></path><path fill-rule="evenodd" clip-rule="evenodd" d="M21.2752 10.4878C21.5509 10.5043 21.7609 10.7412 21.7444 11.0168L21.5434 14.3649C21.5269 14.6405 21.29 14.8506 21.0144 14.834C20.7387 14.8175 20.5287 14.5806 20.5452 14.305L20.7462 10.9569C20.7627 10.6813 20.9996 10.4712 21.2752 10.4878Z" fill="black"></path><path fill-rule="evenodd" clip-rule="evenodd" d="M2.98582 9.16597C3.26146 9.18252 3.47151 9.41939 3.45496 9.69503L3.254 13.0431C3.23746 13.3188 3.00059 13.5288 2.72494 13.5123C2.44929 13.4957 2.23925 13.2588 2.2558 12.9832L2.45676 9.63512C2.4733 9.35947 2.71017 9.14943 2.98582 9.16597Z" fill="black"></path><path fill-rule="evenodd" clip-rule="evenodd" d="M6.79635 19.8814C6.56591 19.7292 6.50244 19.4191 6.65459 19.1886L7.88664 17.3226C8.03879 17.0921 8.34895 17.0287 8.57939 17.1808C8.80984 17.333 8.87331 17.6431 8.72115 17.8736L7.4891 19.7396C7.33695 19.97 7.0268 20.0335 6.79635 19.8814Z" fill="black"></path><path fill-rule="evenodd" clip-rule="evenodd" d="M3.55281 16.2236C3.42931 15.9766 3.52942 15.6763 3.77641 15.5528L5.77641 14.5528C6.0234 14.4293 6.32374 14.5294 6.44723 14.7764C6.57073 15.0234 6.47062 15.3237 6.22363 15.4472L4.22363 16.4472C3.97664 16.5707 3.6763 16.4706 3.55281 16.2236Z" fill="black"></path><path fill-rule="evenodd" clip-rule="evenodd" d="M2.57273 11.4342C2.58927 11.1585 2.82614 10.9485 3.10179 10.965L5.33384 11.099C5.60949 11.1155 5.81953 11.3524 5.80298 11.6281C5.78644 11.9037 5.54957 12.1137 5.27392 12.0972L3.04187 11.9632C2.76623 11.9467 2.55618 11.7098 2.57273 11.4342Z" fill="black"></path><path fill-rule="evenodd" clip-rule="evenodd" d="M4.11866 6.7963C4.27081 6.56585 4.58097 6.50238 4.81141 6.65454L6.67744 7.88659C6.90788 8.03874 6.97135 8.34889 6.8192 8.57934C6.66705 8.80978 6.35689 8.87325 6.12645 8.7211L4.26042 7.48905C4.02998 7.3369 3.96651 7.02674 4.11866 6.7963Z" fill="black"></path><path fill-rule="evenodd" clip-rule="evenodd" d="M14.7764 17.5528C15.0234 17.4293 15.3238 17.5294 15.4473 17.7764L16.4473 19.7764C16.5708 20.0234 16.4706 20.3237 16.2237 20.4472C15.9767 20.5707 15.6763 20.4706 15.5528 20.2236L14.5528 18.2236C14.4293 17.9766 14.5295 17.6763 14.7764 17.5528Z" fill="black"></path><path fill-rule="evenodd" clip-rule="evenodd" d="M15.4207 6.81918C15.1903 6.66703 15.1268 6.35687 15.2789 6.12643L16.511 4.2604C16.6631 4.02996 16.9733 3.96649 17.2037 4.11864C17.4342 4.27079 17.4977 4.58095 17.3455 4.81139L16.1135 6.67742C15.9613 6.90786 15.6512 6.97133 15.4207 6.81918Z" fill="black"></path><path fill-rule="evenodd" clip-rule="evenodd" d="M17.5527 9.22358C17.4292 8.97659 17.5294 8.67625 17.7763 8.55276L19.7763 7.55276C20.0233 7.42926 20.3237 7.52937 20.4472 7.77636C20.5707 8.02335 20.4705 8.32369 20.2236 8.44718L18.2236 9.44718C17.9766 9.57068 17.6762 9.47057 17.5527 9.22358Z" fill="black"></path><path fill-rule="evenodd" clip-rule="evenodd" d="M18.1971 12.3719C18.2137 12.0963 18.4505 11.8862 18.7262 11.9028L20.9582 12.0368C21.2339 12.0533 21.4439 12.2902 21.4274 12.5658C21.4108 12.8415 21.174 13.0515 20.8983 13.035L18.6663 12.901C18.3906 12.8845 18.1806 12.6476 18.1971 12.3719Z" fill="black"></path><path fill-rule="evenodd" clip-rule="evenodd" d="M17.181 15.4207C17.3332 15.1902 17.6433 15.1267 17.8738 15.2789L19.7398 16.511C19.9702 16.6631 20.0337 16.9733 19.8816 17.2037C19.7294 17.4341 19.4192 17.4976 19.1888 17.3455L17.3228 16.1134C17.0923 15.9613 17.0289 15.6511 17.181 15.4207Z" fill="black"></path><path fill-rule="evenodd" clip-rule="evenodd" d="M12.5659 2.57265C12.8416 2.58919 13.0516 2.82606 13.0351 3.10171L12.9011 5.33376C12.8846 5.60941 12.6477 5.81945 12.372 5.8029C12.0964 5.78636 11.8864 5.54949 11.9029 5.27384L12.0369 3.04179C12.0534 2.76615 12.2903 2.5561 12.5659 2.57265Z" fill="black"></path><path fill-rule="evenodd" clip-rule="evenodd" d="M11.6281 18.1971C11.9038 18.2136 12.1138 18.4505 12.0973 18.7261L11.9633 20.9582C11.9467 21.2338 11.7099 21.4439 11.4342 21.4273C11.1586 21.4108 10.9485 21.1739 10.9651 20.8983L11.0991 18.6662C11.1156 18.3906 11.3525 18.1805 11.6281 18.1971Z" fill="black"></path><path fill-rule="evenodd" clip-rule="evenodd" d="M10 15C10.5523 15 11 14.5523 11 14C11 13.4477 10.5523 13 10 13C9.44776 13 9.00005 13.4477 9.00005 14C9.00005 14.5523 9.44776 15 10 15Z" fill="black"></path><path fill-rule="evenodd" clip-rule="evenodd" d="M14 12C14.5523 12 15 11.5523 15 11C15 10.4477 14.5523 10 14 10C13.4478 10 13 10.4477 13 11C13 11.5523 13.4478 12 14 12Z" fill="black"></path><path d="M11 9.5C11 9.77614 10.7762 10 10.5 10C10.2239 10 10 9.77614 10 9.5C10 9.22386 10.2239 9 10.5 9C10.7762 9 11 9.22386 11 9.5Z" fill="black"></path><path d="M15 14.5C15 14.7761 14.7762 15 14.5 15C14.2239 15 14 14.7761 14 14.5C14 14.2239 14.2239 14 14.5 14C14.7762 14 15 14.2239 15 14.5Z" fill="black"></path></svg>