<svg height='100px' width='100px'  fill="#000000" xmlns="http://www.w3.org/2000/svg" xmlns:xlink="http://www.w3.org/1999/xlink" version="1.1" x="0px" y="0px" viewBox="0 0 66 66" enable-background="new 0 0 66 66" xml:space="preserve"><g><path d="M59,36.6c-2.1-1.9-2.7-4.8-6.1-4.8c-3.4,0-4.5,2.6-6.8,3.7c1.1-1.9,7-7.1,1.8-15.2c-1.2-1.8-1.8-3.7-1.9-5.6   c-0.1-2.9,0.6-4.9,0.6-4.9c0.1-0.4,0.1-0.8-0.2-1.1c-0.3-0.3-0.7-0.3-1.1-0.2L44,9.1l0.3-2.2c0.1-0.4-0.1-0.8-0.5-1   c-0.3-0.2-0.8-0.2-1.1,0.1C32.8,14.3,32,25.7,32.1,30.7c-5.6-5.6-8.4-17.2-2.9-28.3c0.2-0.3,0.1-0.7-0.1-1c-0.2-0.3-0.6-0.4-1-0.3   c-0.5,0.1-12.6,3.5-16.5,12.3c-1.4,3.3-1.5,6.8-0.3,10.6l-1.6-1.2c-0.3-0.2-0.7-0.3-1.1,0c-0.3,0.2-0.5,0.6-0.4,1   c0,0.2,0.8,4.1,3.3,7.1l-0.6-0.1c-0.3-0.1-0.6,0-0.9,0.3c-0.2,0.2-0.3,0.5-0.3,0.9c0,0.1,0.6,2.9,4.2,4.9L12.8,37   c-0.3,0.1-0.6,0.3-0.7,0.6c-0.1,0.3-0.1,0.6,0.1,0.9c0.2,0.3,4.5,7.1,11.7,8.9c-5.6,1.9-13.6,4.5-16.3,4.5H7.5   c-0.5,0-0.9,0.3-1,0.7c-0.1,0.5,0.1,0.9,0.5,1.1l3.5,1.6l-2,2c-0.3,0.3-0.4,0.7-0.2,1.1c0.2,0.4,0.6,0.6,1,0.5l3.2-0.5L12,60.8   c-0.1,0.4,0,0.7,0.3,1c0.3,0.2,0.7,0.3,1,0.2l2.3-1l0.1,1.8c0,0.4,0.3,0.7,0.6,0.9c4.9,2,11.4,2.3,15.8-1.4   c0.4-0.3,0.5-0.9,0.2-1.3c-0.1-0.2-2.7-3.8-0.3-8.5c8.7-0.9,15.8-3.3,21.5-11.9c1.3-2,2.8-2.7,4.7-2.1c0.1,0,0.2,0,0.3,0h0   c0.5,0,1-0.4,1-1C59.5,37.1,59.3,36.8,59,36.6z M42,9.4l-0.2,1.2c0,0.3,0.1,0.7,0.4,0.9c0.3,0.2,0.7,0.3,1,0.1l1.1-0.5   c-0.7,3.8,0,7,2,10.1c1.3,2.1,3.1,6.1,0.2,10.4c-0.5,0.6-2.4,2.8-2.7,4.6c-3.5,0.5-6.9-1.3-9.6-3.5C33.9,30.5,33,18.5,42,9.4z    M52,39.4c-3.8,5.6-9.2,9.3-15.3,10.4c-3,0.5-5.3,0.7-5.3,0.7c-0.3,0-0.6,0.2-0.8,0.5c-2.8,4.7-1.3,8.6-0.4,10.3   c-3.5,2.4-8.5,2.2-12.5,0.8l-0.1-2.5c0-0.3-0.2-0.6-0.5-0.8c-0.3-0.2-0.6-0.2-0.9-0.1l-1.8,0.8l0.5-1.9c0.1-0.3,0-0.7-0.2-0.9   c-0.2-0.2-0.5-0.4-0.9-0.3l-1.8,0.3l0.8-0.9c0.2-0.2,0.3-0.5,0.3-0.9c-0.1-0.3-0.3-0.6-0.6-0.7l-1.7-0.8c6.3-1.4,17.2-5.4,17.8-5.6   c0.5-0.2,0.7-0.6,0.6-1.1c-0.1-0.5-0.6-0.8-1-0.8c-6.8,0.5-11.7-4.9-13.6-7.3l2.5-0.6c0.4-0.1,0.7-0.5,0.7-0.9c0-0.4-0.3-0.8-0.7-1   c-2.7-0.9-4.1-2.1-4.9-3.1l2.7,0.5c0.5,0.1,1-0.2,1.1-0.7c0.1-0.5-0.1-1-0.5-1.2c-2.5-1.1-4-3.6-4.8-5.6l2.1,1.5   c0.4,0.3,0.9,0.2,1.2,0c0.3-0.3,0.4-0.8,0.2-1.2C8.9,15.5,15.2,7.9,26.6,3.6c-7.3,17.9,4.9,34.6,16,34.6c0.1,0,4.5,0.1,7.2-3   c0.3-0.3,0.6-0.6,1-0.8c2.1-1.2,3.7-0.9,4.9,1.2c0.2,0.3,0.3,0.5,0.5,0.7C54.6,36.6,53.1,37.7,52,39.4z"></path><path d="M53,35.8c0,0.6-0.5,1-1,1c-0.6,0-1-0.5-1-1c0-0.6,0.5-1,1-1C52.6,34.8,53,35.2,53,35.8z"></path></g></svg>