<svg height='100px' width='100px'  fill="#000000" xmlns="http://www.w3.org/2000/svg" viewBox="0 0 100 100" x="0px" y="0px"><title>Inbound</title><g data-name="Iconos"><path d="M87.37,21.2H68.55a5.16,5.16,0,0,0-5.16,5.16V37.81A5.16,5.16,0,0,0,68.55,43h2l0,5.19a1.49,1.49,0,0,0,.84,1.33,1.43,1.43,0,0,0,.66.16,1.53,1.53,0,0,0,.91-.3L81.43,43h5.94a5.16,5.16,0,0,0,5.16-5.16V26.36A5.16,5.16,0,0,0,87.37,21.2Zm2.16,16.61A2.16,2.16,0,0,1,87.37,40H80.93a1.5,1.5,0,0,0-.9.3l-6.48,4.89,0-3.7A1.49,1.49,0,0,0,72,40H68.55a2.16,2.16,0,0,1-2.16-2.16V26.36a2.16,2.16,0,0,1,2.16-2.16H87.37a2.16,2.16,0,0,1,2.16,2.16Z"></path><path d="M80.22,25.87a4.9,4.9,0,0,0-2.25,1,4.88,4.88,0,0,0-2.23-1,4.61,4.61,0,0,0-3.93,1.36,4.52,4.52,0,0,0-.87,4.48c1,3.8,5.69,6.69,6.22,7a1.51,1.51,0,0,0,.77.21,1.43,1.43,0,0,0,.75-.2c.53-.3,5.25-3.12,6.29-7a4.36,4.36,0,0,0-4.75-5.88ZM82.07,31c-.5,1.86-2.73,3.71-4.13,4.67-1.4-1-3.61-2.83-4.1-4.7A1.79,1.79,0,0,1,74,29.25a1.67,1.67,0,0,1,1.1-.45h.09a2.38,2.38,0,0,1,1.45,1.05,1.52,1.52,0,0,0,1.31.77h0a1.51,1.51,0,0,0,1.31-.76,2.42,2.42,0,0,1,1.46-1,1.66,1.66,0,0,1,1.19.45A1.77,1.77,0,0,1,82.07,31Z"></path><path d="M28,25.2H13.18A5.16,5.16,0,0,0,8,30.36V41.81A5.16,5.16,0,0,0,13.18,47h4l8.49,5.25a1.48,1.48,0,0,0,.79.23,1.46,1.46,0,0,0,.72-.19A1.51,1.51,0,0,0,28,51L28,47a5.17,5.17,0,0,0,5.14-5.16V30.36A5.16,5.16,0,0,0,28,25.2Zm2.16,16.61A2.16,2.16,0,0,1,28,44H26.53A1.51,1.51,0,0,0,25,45.45l0,2.83L18.41,44.2a1.48,1.48,0,0,0-.79-.23H13.18A2.16,2.16,0,0,1,11,41.81V30.36a2.16,2.16,0,0,1,2.16-2.16H28a2.16,2.16,0,0,1,2.16,2.16Z"></path><path d="M22.81,29.85a4.83,4.83,0,0,0-2.23,1,4.9,4.9,0,0,0-2.25-1,4.36,4.36,0,0,0-4.75,5.88c1,3.84,5.76,6.66,6.29,7a1.43,1.43,0,0,0,.75.2,1.6,1.6,0,0,0,.76-.2c.53-.32,5.22-3.17,6.23-7a4.52,4.52,0,0,0-.87-4.48A4.61,4.61,0,0,0,22.81,29.85Zm1.9,5.08c-.48,1.82-2.59,3.66-4.1,4.7-1.41-1-3.63-2.8-4.13-4.67a1.77,1.77,0,0,1,.15-1.68,1.71,1.71,0,0,1,1.11-.46h.08a2.42,2.42,0,0,1,1.46,1,1.49,1.49,0,0,0,1.3.75h0a1.52,1.52,0,0,0,1.3-.75,2.42,2.42,0,0,1,1.46-1.06,1.59,1.59,0,0,1,1.19.44A1.79,1.79,0,0,1,24.71,34.93Z"></path><path d="M55,18.24H42.31a1.5,1.5,0,0,0,0,3H55a1.5,1.5,0,0,0,0-3Z"></path><path d="M55,23.76H42.31a1.5,1.5,0,0,0,0,3H55a1.5,1.5,0,0,0,0-3Z"></path><path d="M51.62,29.27H42.31a1.5,1.5,0,1,0,0,3h9.31a1.5,1.5,0,1,0,0-3Z"></path><path d="M55.61,11.57H41.19a5.87,5.87,0,0,0-5.87,5.86V33.08a5.87,5.87,0,0,0,5.87,5.86h2.74l3.54,4.43a1.49,1.49,0,0,0,2.34,0l3.54-4.43h2.26a5.87,5.87,0,0,0,5.87-5.86V17.43A5.87,5.87,0,0,0,55.61,11.57Zm2.87,21.51a2.87,2.87,0,0,1-2.87,2.86h-3a1.51,1.51,0,0,0-1.17.57L48.64,40l-2.82-3.52a1.51,1.51,0,0,0-1.17-.57H41.19a2.87,2.87,0,0,1-2.87-2.86V17.43a2.87,2.87,0,0,1,2.87-2.86H55.61a2.87,2.87,0,0,1,2.87,2.86Z"></path><path d="M49.15,63.57c4.69,0,8.18-4.92,8.18-9.32s-3.51-7.72-8.18-7.72S41,49.85,41,54.25,44.47,63.57,49.15,63.57Zm0-14c3,0,5.18,2,5.18,4.72S52,60.57,49.15,60.57,44,57.11,44,54.25,46.15,49.53,49.15,49.53Z"></path><path d="M39.54,76.05l-.79,11.34A1.5,1.5,0,0,0,40.14,89h.11a1.5,1.5,0,0,0,1.49-1.4l.8-11.34a1.5,1.5,0,0,0-3-.21Z"></path><path d="M33.71,75.88,32.45,87.34a1.5,1.5,0,0,0,3,.32L36.7,76.13c0-.06,0-.11,0-.17a7.27,7.27,0,0,1,6.16-7.54A63,63,0,0,1,49.23,68h0a51.72,51.72,0,0,1,6.13.44A7.37,7.37,0,0,1,61.57,76a1.09,1.09,0,0,0,0,.18L63,87.68A1.5,1.5,0,0,0,64.45,89h.18a1.5,1.5,0,0,0,1.31-1.67L64.57,75.87a10.3,10.3,0,0,0-8.74-10.42A55.22,55.22,0,0,0,49.25,65a66.64,66.64,0,0,0-6.78.47A10.31,10.31,0,0,0,33.71,75.88Z"></path><path d="M57.13,74.66a1.5,1.5,0,0,0-1.39,1.6l.79,11.34A1.51,1.51,0,0,0,58,89h.11a1.51,1.51,0,0,0,1.39-1.61l-.8-11.34A1.5,1.5,0,0,0,57.13,74.66Z"></path><path d="M64.56,50.68a6.6,6.6,0,0,0-6.93,6.56c0,3.7,3,7.85,6.93,7.85s6.93-4.15,6.93-7.85A6.6,6.6,0,0,0,64.56,50.68Zm0,11.41c-2.12,0-3.93-2.67-3.93-4.85a3.95,3.95,0,0,1,7.86,0C68.49,59.42,66.67,62.09,64.56,62.09Z"></path><path d="M77.36,75.92A8.65,8.65,0,0,0,70,67.19a45.6,45.6,0,0,0-5.39-.39h0a1.5,1.5,0,0,0,0,3,41.79,41.79,0,0,1,4.94.36A5.62,5.62,0,0,1,74.36,76a1.1,1.1,0,0,0,0,.18l1.12,9.37A1.5,1.5,0,0,0,77,86.89l.18,0a1.49,1.49,0,0,0,1.31-1.66Z"></path><path d="M71.77,86.89h.11a1.5,1.5,0,0,0,1.39-1.6l-.65-9.22A1.52,1.52,0,0,0,71,74.67a1.5,1.5,0,0,0-1.39,1.6l.65,9.22A1.5,1.5,0,0,0,71.77,86.89Z"></path><path d="M27,57.24c0,3.7,3,7.85,6.93,7.85s6.93-4.15,6.93-7.85a6.6,6.6,0,0,0-6.93-6.56A6.6,6.6,0,0,0,27,57.24Zm10.86,0c0,2.18-1.82,4.85-3.93,4.85S30,59.42,30,57.24a3.63,3.63,0,0,1,3.93-3.56A3.63,3.63,0,0,1,37.85,57.24Z"></path><path d="M33.84,66.8a45.44,45.44,0,0,0-5.39.39,8.66,8.66,0,0,0-7.34,8.73L20,85.21a1.5,1.5,0,0,0,1.31,1.66l.18,0A1.5,1.5,0,0,0,23,85.56l1.13-9.37a1.09,1.09,0,0,0,0-.18,5.63,5.63,0,0,1,4.79-5.85,41.94,41.94,0,0,1,4.94-.36,1.5,1.5,0,0,0,0-3Z"></path><path d="M25.86,76.06l-.65,9.22a1.49,1.49,0,0,0,1.39,1.6h.11a1.5,1.5,0,0,0,1.49-1.4l.65-9.22a1.5,1.5,0,1,0-3-.21Z"></path></g></svg>