<svg height='100px' width='100px'  fill="#000000" xmlns="http://www.w3.org/2000/svg" xmlns:xlink="http://www.w3.org/1999/xlink" version="1.1" x="0px" y="0px" viewBox="0 0 100 100" style="enable-background:new 0 0 100 100;" xml:space="preserve"><g><path d="M81.986,18.385c-0.053-0.069-0.103-0.141-0.167-0.204s-0.135-0.114-0.204-0.167C73.482,9.974,62.313,5,50,5   C25.187,5,5,25.187,5,50c0,12.313,4.974,23.482,13.014,31.615c0.053,0.069,0.103,0.141,0.167,0.204s0.135,0.114,0.204,0.167   C26.518,90.026,37.688,95,50,95c24.813,0,45-20.187,45-45C95,37.688,90.026,26.518,81.986,18.385z M9,50C9,27.393,27.393,9,50,9   c10.586,0,20.247,4.033,27.529,10.643L58.246,38.926c-0.081-1.03-0.933-1.843-1.984-1.843h-1.018   c-0.015-0.102-0.03-0.205-0.062-0.307l-1.771-5.738c-0.598-1.946-2.232-3.253-4.068-3.253h-2.258l6.374-10.913   c0.558-0.954,0.236-2.179-0.718-2.735c-0.955-0.559-2.18-0.236-2.735,0.718l-7.552,12.931h-3.947H27.669   c-1.837,0-3.472,1.308-4.066,3.25l-1.771,5.741c-0.031,0.102-0.047,0.204-0.062,0.307H20.75c-1.104,0-2,0.896-2,2s0.896,2,2,2   h0.911l4.973,29.455l-6.991,6.991C13.033,70.247,9,60.586,9,50z M56.089,41.083l-0.927,0.927l0.162-0.927H56.089z M26.641,46.558   l-0.924-5.475h25.545l-0.959,5.503c-0.093-0.013-0.186-0.029-0.283-0.029H26.641z M44.803,50.558   c-2.1,1.734-3.833,4.061-5.016,6.828l-6.898,6.898h-3.255l-2.317-13.726H44.803z M25.923,37.083l1.503-4.872   c0.092-0.301,0.243-0.418,0.243-0.426h10.837l5.075-0.002c0.006,0,0.012,0.002,0.018,0.002c0.006,0,0.012-0.002,0.018-0.002   l5.694-0.003c0.032,0.013,0.184,0.131,0.277,0.435l1.502,4.868H25.923z M50,91c-10.586,0-20.247-4.033-27.529-10.643l1.448-1.448   c0.065-0.115,0.122-0.234,0.22-0.332l53.213-53.214c0.099-0.099,0.219-0.157,0.334-0.222l2.67-2.67C86.967,29.753,91,39.414,91,50   C91,72.607,72.607,91,50,91z"></path><path d="M76.37,65.911c0.895-1.074,1.271-2.574,1.005-4.012c-1.603-8.667-7.979-14.72-15.51-14.72h-2.087l-4,4h6.086   c5.481,0,10.351,4.814,11.576,11.446c0.069,0.376-0.076,0.664-0.166,0.751l-29.713,0.019l-4.887,4.887h2.002v1.242   c-0.354,0.217-0.676,0.5-0.934,0.865c-0.354,0.502-0.573,1.097-0.649,1.717h-0.592c-0.003,0-0.006,0.001-0.01,0.001h-3.642   l-3.947,3.947c0.159,0.019,0.315,0.053,0.478,0.053h7.123c0.003,0,0.006-0.001,0.01-0.001h1.658   c1.127,2.091,3.03,3.394,5.107,3.394h25.245c2.437,0,4.646-1.784,5.629-4.549l0.358-1.009c0.425-1.194,0.251-2.556-0.452-3.553   c-0.258-0.366-0.582-0.65-0.938-0.867v-2.609C75.588,66.667,76.017,66.336,76.37,65.911z M44.678,67.377h26.445v1.71H44.678V67.377   z M72.385,73.613c-0.401,1.128-1.148,1.887-1.859,1.887H45.28c-0.6,0-1.222-0.542-1.643-1.386c0-0.003,0.001-0.005,0.001-0.007   c0-0.372-0.109-0.717-0.286-1.016H72.57L72.385,73.613z"></path></g></svg>