<svg height='100px' width='100px'  fill="#000000" xmlns="http://www.w3.org/2000/svg" viewBox="0 0 64 64" x="0px" y="0px"><title>fire, burn, flame, flammable</title><g><path d="M46.13,16.61a1.5,1.5,0,0,0-2.77.79A12.81,12.81,0,0,1,40,26.25C39.79,11.27,28,3.33,27.49,3a1.5,1.5,0,0,0-1.59,0,1.51,1.51,0,0,0-.73,1.41c.51,6.42-2.91,10.66-6.53,15.14S11.18,28.71,10.8,36c-.4,7.67,1.71,14.17,6.1,18.8a21.38,21.38,0,0,0,15.62,6.43,12.51,12.51,0,0,0,1.3.07c3.3,0,11.53-1.18,17.18-12C58,36,46.62,17.39,46.13,16.61Zm-12,23.52c2.62,2.53,4.13,5.48,4.16,8.31,0,3.38-2,6.68-5.87,9.58-1.88-.82-6.48-3.43-5.45-9.3l3,1.33a1.49,1.49,0,0,0,1.6-.24C31.67,49.68,34.69,46.93,34.11,40.13Zm14.23,7.76C44.87,54.53,40.4,57,37.15,57.83c3.36-3.53,4.16-6.95,4.12-9.43-.06-4.84-3.15-9.62-8.47-13.12a1.5,1.5,0,0,0-2.28,1.61c1.41,5.67.3,8.68-.45,9.94l-3.51-1.58a1.51,1.51,0,0,0-2,.9c-1.6,4.92-.3,8.57,1.84,11.07a17.27,17.27,0,0,1-7.27-4.51c-3.81-4-5.64-9.75-5.28-16.58.32-6.29,3.65-10.4,7.17-14.76,3.26-4,6.62-8.19,7.17-14A26,26,0,0,1,36.83,29.4a1.5,1.5,0,0,0,2.23,1.46,15.51,15.51,0,0,0,6.62-8.71C48.52,28.09,52.74,39.48,48.34,47.89Z"></path></g></svg>