<svg height='100px' width='100px'  fill="#000000" xmlns="http://www.w3.org/2000/svg" xmlns:xlink="http://www.w3.org/1999/xlink" viewBox="0 0 100 100" version="1.1" x="0px" y="0px"><title>4.2</title><desc>Created with Sketch.</desc><g stroke="none" stroke-width="1" fill="none" fill-rule="evenodd"><g fill-rule="nonzero" fill="#000000"><path d="M64.9195231,53.3907234 C65.266893,53.1430924 65.733107,53.1430924 66.0804769,53.3907234 L68.7404721,55.2869655 C69.0125229,55.4809036 69.1494093,55.3725464 69.0513138,55.0611258 L68.0698641,51.945349 C67.9416962,51.5384584 68.0857643,51.0950625 68.4286186,50.8412163 L71.0540357,48.8973816 C71.3225501,48.698576 71.2617965,48.5349051 70.9353047,48.5319652 L67.6687403,48.5025514 C67.2421583,48.4987102 66.8649832,48.2246765 66.7295089,47.8201598 L65.5964775,44.4370076 C65.5431944,44.2779082 65.459092,44.2710809 65.4035225,44.4370076 L64.2704911,47.8201598 C64.1350168,48.2246765 63.7578417,48.4987102 63.3312597,48.5025514 L60.0646953,48.5319652 C59.7306076,48.5349735 59.6835549,48.7030961 59.9459643,48.8973816 L62.5713814,50.8412163 C62.9142357,51.0950625 63.0583038,51.5384584 62.9301359,51.945349 L61.9486862,55.0611258 C61.8483085,55.3797917 61.9936625,55.4764941 62.2595279,55.2869655 L64.9195231,53.3907234 Z M60.496517,58.9999382 C59.715152,59.5569532 58.673942,58.8004698 58.9622397,57.8852204 L60.7193163,52.307086 C60.7684929,52.1509666 60.705212,51.9480381 60.5701671,51.8480521 L55.8699172,48.3680302 C55.0987093,47.7970351 55.4964162,46.5730193 56.4559589,46.5643791 L62.600406,46.5090513 L64.5517645,40.6824321 C64.8564968,39.7725226 66.1435032,39.7725226 66.4482355,40.6824321 L68.399594,46.5090513 L74.5440411,46.5643791 C75.5035838,46.5730193 75.9012907,47.7970351 75.1300828,48.3680302 L70.4298329,51.8480521 C70.2982835,51.9454501 70.2302004,52.1468182 70.2806837,52.307086 L72.0377603,57.8852204 C72.326058,58.8004698 71.284848,59.5569532 70.503483,58.9999382 L65.7413284,55.6051207 C65.6080464,55.5101074 65.3954951,55.5075827 65.2586716,55.6051207 L60.496517,58.9999382 Z M68.428796,33.1066137 C69.2417425,33.99299 68.0854805,35.2963307 67.1085423,34.5948061 C63.9058853,32.2950266 60.0682518,31.0389789 56.0389789,31.0389789 C45.5455687,31.0389789 37.0389789,39.5455687 37.0389789,50.0389789 C37.0389789,60.5323892 45.5455687,69.0389789 56.0389789,69.0389789 C59.9829339,69.0389789 63.7439505,67.8357602 66.9072562,65.6257283 C67.893166,64.9369261 69.0324557,66.2550448 68.2081742,67.1308453 C63.5139336,72.1184842 56.9861644,75 50,75 C36.1928813,75 25,63.8071187 25,50 C25,36.1928813 36.1928813,25 50,25 C57.0996421,25 63.7236182,27.9764382 68.428796,33.1066137 Z M50,27 C37.2974508,27 27,37.2974508 27,50 C27,62.7025492 37.2974508,73 50,73 C53.6014626,73 57.0691824,72.1684508 60.1822724,70.6300637 C58.8321753,70.9002162 57.4458391,71.0389789 56.0389789,71.0389789 C44.4409992,71.0389789 35.0389789,61.6369587 35.0389789,50.0389789 C35.0389789,38.4409992 44.4409992,29.0389789 56.0389789,29.0389789 C57.5377948,29.0389789 59.0132068,29.1964957 60.4461814,29.5024912 C57.2664945,27.8799033 53.7042881,27 50,27 Z"></path></g></g></svg>