<svg height='100px' width='100px'  fill="#000000" xmlns="http://www.w3.org/2000/svg" xmlns:xlink="http://www.w3.org/1999/xlink" version="1.1" x="0px" y="0px" viewBox="0 0 100 100" enable-background="new 0 0 100 100" xml:space="preserve"><g><path d="M84.6,57.9c-3.3-2-6.3-4.7-9-7.9c2.7-3.2,5.7-5.8,9-7.9c1.1-0.7,1.4-2.1,0.7-3.2c-0.7-1.1-2.1-1.4-3.2-0.7   c-3.4,2.1-6.4,4.7-9.2,7.8c-7.7-8.6-17.5-13.3-27.9-13.3c-11.3,0-21.9,5.5-29.8,15.5l-0.3,0.4c-0.7,0.9-0.7,2.1,0,2.9l0.3,0.4   c7.9,10,18.5,15.5,29.8,15.5c10.4,0,20.3-4.7,27.9-13.3c2.8,3.1,5.9,5.7,9.2,7.8c0.4,0.2,0.8,0.4,1.2,0.4c0.8,0,1.5-0.4,2-1.1   C86,60,85.7,58.5,84.6,57.9z M44.9,62.7c-9.4,0-18.3-4.5-25.2-12.7c6.9-8.2,15.8-12.7,25.2-12.7S63.2,41.8,70.1,50   C63.2,58.2,54.3,62.7,44.9,62.7z"></path><path d="M32.4,41.5h-0.6c-1.3,0-2.3,1.1-2.3,2.3c0,1.3,1.1,2.3,2.3,2.3h0.6c1.3,0,2.3-1.1,2.3-2.3C34.8,42.5,33.7,41.5,32.4,41.5z"></path></g></svg>