<svg height='100px' width='100px'  fill="#000000" xmlns="http://www.w3.org/2000/svg" xmlns:xlink="http://www.w3.org/1999/xlink" version="1.1" x="0px" y="0px" viewBox="0 0 96 96" enable-background="new 0 0 96 96" xml:space="preserve"><path d="M52.022,41.708c-8.061-3.423-10.388-5.392-10.388-8.777c0-1.012,0.378-6.059,7.851-6.059c5.538,0,8.962,1.962,10.801,3.016  l2.167,1.244l3.896-10.264l-1.592-0.901c-3.217-1.826-6.65-2.93-10.491-3.375c-0.384-0.045-0.673-0.37-0.673-0.756V7.253H43.395  v9.216c0,0.344-0.231,0.646-0.565,0.735c-8.365,2.242-13.562,8.666-13.562,16.761c0,10.356,8.524,15.093,16.861,18.361  c8.192,3.322,9.318,6.404,9.318,9.234c0,4.244-3.646,7.094-9.074,7.094c-4.181,0-8.776-1.383-12.292-3.697l-2.266-1.492  L28.094,73.85l1.312,0.938c3.163,2.258,7.807,3.85,12.742,4.375c0.387,0.037,0.681,0.365,0.681,0.756v8.828h10.2V79.17  c0-0.346,0.232-0.648,0.568-0.734c8.694-2.268,14.31-9.186,14.31-17.623C67.909,49.686,59.878,44.912,52.022,41.708z"></path></svg>