<svg height='100px' width='100px'  fill="#000000" xmlns="http://www.w3.org/2000/svg" data-name="Layer 1" viewBox="0 0 100 100" x="0px" y="0px"><title>Artboard 75</title><path d="M74,45a9.93,9.93,0,0,0-4.62,1.14L63.25,40a15,15,0,1,0-26.5,0l-6.13,6.13a10,10,0,1,0,4.24,4.24l5.72-5.72a14.94,14.94,0,0,0,6.42,3V62.46a10,10,0,1,0,6,0V47.7a14.94,14.94,0,0,0,6.42-3l5.72,5.72A10,10,0,1,0,74,45ZM50,24a9,9,0,1,1-9,9A9,9,0,0,1,50,24ZM26,59a4,4,0,1,1,4-4A4,4,0,0,1,26,59ZM50,76a4,4,0,1,1,4-4A4,4,0,0,1,50,76ZM74,59a4,4,0,1,1,4-4A4,4,0,0,1,74,59Z"></path></svg>