<svg height='100px' width='100px'  fill="#000000" xmlns:dc="http://purl.org/dc/elements/1.1/" xmlns:cc="http://creativecommons.org/ns#" xmlns:rdf="http://www.w3.org/1999/02/22-rdf-syntax-ns#" xmlns:svg="http://www.w3.org/2000/svg" xmlns="http://www.w3.org/2000/svg" xmlns:sodipodi="http://sodipodi.sourceforge.net/DTD/sodipodi-0.dtd" xmlns:inkscape="http://www.inkscape.org/namespaces/inkscape" viewBox="0 0 8.4666665 8.4666669" version="1.1" x="0px" y="0px"><g transform="translate(0,-288.53332)"><path d="m 1.0423567,291.79442 c -0.034793,0.0126 -0.0791634,0.0299 -0.1250421,0.062 -0.0459052,0.0321 -0.10313458,0.0896 -0.10956396,0.17621 -0.0445823,0.5979 -0.0749829,0.91768 0.002646,1.3746 0.0309298,0.1846 0.0997744,0.3561 0.17623896,0.51366 0.17634476,0.36335 0.58319456,0.91429 0.61804026,0.9617 l -0.010848,0.90951 a 0.1323049,0.13230491 0 1 0 0.2645834,0.004 l 0.011377,-0.94878 a 0.1323049,0.13230491 0 0 0 -0.0254,-0.0796 c 0,0 -0.4639205,-0.64038 -0.6201305,-0.96222 -0.070538,-0.14534 -0.12827,-0.29385 -0.1529556,-0.44131 -0.070326,-0.41986 -0.042016,-0.7102 0.00265,-1.29191 0.012436,-0.008 0.036645,-0.0201 0.060986,-0.0289 0.056753,-0.0206 0.1321329,-0.021 0.1777735,-0.002 0.015346,0.006 0.044185,0.0342 0.060457,0.0661 0.053499,0.10507 0.052917,0.25694 0.049609,0.43202 -0.00317,0.17507 -0.00794,0.37802 0.1126596,0.55603 0.095144,0.14026 0.2391569,0.20155 0.3622411,0.25115 0.1231106,0.0496 0.2309018,0.0912 0.2940314,0.14935 0.037703,0.0347 0.1071563,0.12806 0.1586706,0.20722 0.051488,0.0792 0.089376,0.14521 0.089376,0.14521 a 0.1323049,0.13230491 0 1 0 0.2299758,-0.13074 c 0,0 -0.041434,-0.0727 -0.097684,-0.15917 -0.056224,-0.0864 -0.1230048,-0.18554 -0.201004,-0.25734 -0.1182952,-0.1089 -0.2596092,-0.15362 -0.37465,-0.19999 -0.1150673,-0.0464 -0.1985698,-0.0907 -0.2418556,-0.15451 -0.063712,-0.094 -0.070406,-0.23142 -0.067178,-0.40205 0.00318,-0.17062 0.017727,-0.36929 -0.078026,-0.55707 -0.03855,-0.0757 -0.098954,-0.15075 -0.1953419,-0.19069 -0.1227402,-0.0508 -0.2549525,-0.0436 -0.3694906,-0.002 z" style="color:#000000;font-style:normal;font-variant:normal;font-weight:normal;font-stretch:normal;font-size:medium;line-height:normal;font-family:sans-serif;text-indent:0;text-align:start;text-decoration:none;text-decoration-line:none;text-decoration-style:solid;text-decoration-color:#000000;letter-spacing:normal;word-spacing:normal;text-transform:none;direction:ltr;writing-mode:lr-tb;baseline-shift:baseline;text-anchor:start;white-space:normal;clip-rule:nonzero;display:inline;overflow:visible;visibility:visible;opacity:1;isolation:auto;mix-blend-mode:normal;color-interpolation:sRGB;color-interpolation-filters:linearRGB;solid-color:#000000;solid-opacity:1;fill:#000000;fill-opacity:1;fill-rule:evenodd;stroke:none;stroke-width:1px;stroke-linecap:round;stroke-linejoin:round;stroke-miterlimit:4;stroke-dasharray:none;stroke-dashoffset:0;stroke-opacity:1;color-rendering:auto;image-rendering:auto;shape-rendering:auto;text-rendering:auto;enable-background:accumulate"></path><path d="m 1.9957828,290.17281 c -0.1203325,-0.0407 -0.2346855,-0.0147 -0.3266017,0.0176 -0.06768,0.0237 -0.11938,0.0665 -0.1643063,0.12299 -0.044953,0.0565 -0.081703,0.12977 -0.086307,0.21704 -0.042889,0.79421 -0.026458,1.55908 -0.026458,1.55908 a 0.13232224,0.13232225 0 1 0 0.2645833,-0.006 c 0,0 -0.016404,-0.75771 0.025929,-1.53944 0,-0.018 0.011377,-0.044 0.028945,-0.0661 0.017727,-0.0222 0.044344,-0.0378 0.045482,-0.0382 0.075353,-0.0264 0.1064419,-0.0326 0.1539875,-0.0165 -0.011377,-0.004 0.0254,0.0162 0.049609,0.0372 0.024077,0.021 0.042386,0.0398 0.042386,0.0398 a 0.1323049,0.13230491 0 1 0 0.191188,-0.18294 c 0,0 -0.025929,-0.0267 -0.059928,-0.0563 -0.034105,-0.0297 -0.069427,-0.065 -0.1385093,-0.0884 z" style="color:#000000;font-style:normal;font-variant:normal;font-weight:normal;font-stretch:normal;font-size:medium;line-height:normal;font-family:sans-serif;text-indent:0;text-align:start;text-decoration:none;text-decoration-line:none;text-decoration-style:solid;text-decoration-color:#000000;letter-spacing:normal;word-spacing:normal;text-transform:none;direction:ltr;writing-mode:lr-tb;baseline-shift:baseline;text-anchor:start;white-space:normal;clip-rule:nonzero;display:inline;overflow:visible;visibility:visible;opacity:1;isolation:auto;mix-blend-mode:normal;color-interpolation:sRGB;color-interpolation-filters:linearRGB;solid-color:#000000;solid-opacity:1;fill:#000000;fill-opacity:1;fill-rule:evenodd;stroke:none;stroke-width:1px;stroke-linecap:round;stroke-linejoin:round;stroke-miterlimit:4;stroke-dasharray:none;stroke-dashoffset:0;stroke-opacity:1;color-rendering:auto;image-rendering:auto;shape-rendering:auto;text-rendering:auto;enable-background:accumulate"></path><path d="m 2.2815592,289.61832 c -0.084931,0.0174 -0.1399116,0.0632 -0.1891242,0.11679 -0.049212,0.0536 -0.09562,0.11555 -0.09562,0.21291 -0.00635,1.05706 -0.044953,2.574 -0.044953,2.574 a 0.1323049,0.13230491 0 1 0 0.2640807,0.007 c 0,0 0.039238,-1.51807 0.045455,-2.5802 a 0.1323049,0.13230491 0 0 0 0,-5.3e-4 c 0,0.0199 0.00503,-0.011 0.026458,-0.0341 0.021167,-0.0231 0.056092,-0.0385 0.047043,-0.0367 0.063421,-0.013 0.1519502,0.008 0.1819011,0.0357 0.014023,0.0131 0.033338,0.0805 0.035137,0.16226 0.015611,0.709 -0.042889,2.40761 -0.042889,2.40761 a 0.1323049,0.13230491 0 1 0 0.2640541,0.009 c 0,0 0.059029,-1.69008 0.042889,-2.42259 -0.00265,-0.0965 -0.00265,-0.24106 -0.1183217,-0.34985 C 2.578263,289.6078 2.418534,289.5903 2.2816651,289.61832 Z" style="color:#000000;font-style:normal;font-variant:normal;font-weight:normal;font-stretch:normal;font-size:medium;line-height:normal;font-family:sans-serif;text-indent:0;text-align:start;text-decoration:none;text-decoration-line:none;text-decoration-style:solid;text-decoration-color:#000000;letter-spacing:normal;word-spacing:normal;text-transform:none;direction:ltr;writing-mode:lr-tb;baseline-shift:baseline;text-anchor:start;white-space:normal;clip-rule:nonzero;display:inline;overflow:visible;visibility:visible;opacity:1;isolation:auto;mix-blend-mode:normal;color-interpolation:sRGB;color-interpolation-filters:linearRGB;solid-color:#000000;solid-opacity:1;fill:#000000;fill-opacity:1;fill-rule:evenodd;stroke:none;stroke-width:1px;stroke-linecap:round;stroke-linejoin:round;stroke-miterlimit:4;stroke-dasharray:none;stroke-dashoffset:0;stroke-opacity:1;color-rendering:auto;image-rendering:auto;shape-rendering:auto;text-rendering:auto;enable-background:accumulate"></path><path d="m 2.906849,289.88807 c -0.09107,0.007 -0.1457854,0.0456 -0.1958446,0.0765 -0.050086,0.0308 -0.088371,0.061 -0.088371,0.061 a 0.1323049,0.13230491 0 1 0 0.1622425,0.20878 c 0,0 0.028522,-0.0219 0.065114,-0.0444 0.036618,-0.0225 0.088371,-0.0386 0.07702,-0.0377 0.050297,-0.004 0.1100931,0.019 0.1183216,0.0289 0,-0.001 0.0045,0.006 0.00529,0.0393 0,0.0328 -0.00503,0.0817 0,0.1416 0.045985,0.67444 0.00714,2.06654 0.00714,2.06654 a 0.13234844,0.13234845 0 1 0 0.2645833,0.008 c 0,0 0.040534,-1.3834 -0.00767,-2.09186 -0.00265,-0.0258 0.00265,-0.0721 0.00265,-0.12919 0,-0.0571 -0.00979,-0.13518 -0.065643,-0.20257 -0.094985,-0.11495 -0.2312988,-0.13311 -0.342609,-0.12455 z" style="color:#000000;font-style:normal;font-variant:normal;font-weight:normal;font-stretch:normal;font-size:medium;line-height:normal;font-family:sans-serif;text-indent:0;text-align:start;text-decoration:none;text-decoration-line:none;text-decoration-style:solid;text-decoration-color:#000000;letter-spacing:normal;word-spacing:normal;text-transform:none;direction:ltr;writing-mode:lr-tb;baseline-shift:baseline;text-anchor:start;white-space:normal;clip-rule:nonzero;display:inline;overflow:visible;visibility:visible;opacity:1;isolation:auto;mix-blend-mode:normal;color-interpolation:sRGB;color-interpolation-filters:linearRGB;solid-color:#000000;solid-opacity:1;fill:#000000;fill-opacity:1;fill-rule:evenodd;stroke:none;stroke-width:1px;stroke-linecap:round;stroke-linejoin:round;stroke-miterlimit:4;stroke-dasharray:none;stroke-dashoffset:0;stroke-opacity:1;color-rendering:auto;image-rendering:auto;shape-rendering:auto;text-rendering:auto;enable-background:accumulate"></path><path d="m 3.4504884,290.70508 c -0.09734,0.004 -0.1590146,0.0451 -0.2149739,0.078 -0.055959,0.0329 -0.098716,0.0651 -0.098716,0.0651 a 0.13234251,0.13234252 0 1 0 0.1586442,0.21187 c 0,0 0.032491,-0.0244 0.074427,-0.0491 0.041936,-0.0247 0.1003035,-0.0422 0.091969,-0.0419 0.038444,-0.002 0.093424,0.002 0.1240367,0.0104 0.00556,0.002 0.0037,0.001 0.00714,0.003 0.054822,0.52608 0.248576,1.63917 0.2072216,2.33629 -0.032914,0.55584 -0.3663685,1.5322 -0.3663685,1.5322 a 0.1323049,0.13230491 0 0 0 -0.00714,0.045 l 0.0082,0.87127 a 0.1323049,0.13230491 0 1 0 0.2645834,-0.003 l -0.0082,-0.85215 c 0.014817,-0.0418 0.3361531,-0.95423 0.3731154,-1.57819 0.045746,-0.77133 -0.1633538,-1.92223 -0.2118783,-2.40761 -0.00609,-0.0604 -0.041751,-0.11509 -0.080619,-0.14624 -0.038841,-0.0311 -0.078899,-0.0461 -0.1167871,-0.0563 -0.075777,-0.0204 -0.1484841,-0.021 -0.2046287,-0.0186 z" style="color:#000000;font-style:normal;font-variant:normal;font-weight:normal;font-stretch:normal;font-size:medium;line-height:normal;font-family:sans-serif;text-indent:0;text-align:start;text-decoration:none;text-decoration-line:none;text-decoration-style:solid;text-decoration-color:#000000;letter-spacing:normal;word-spacing:normal;text-transform:none;direction:ltr;writing-mode:lr-tb;baseline-shift:baseline;text-anchor:start;white-space:normal;clip-rule:nonzero;display:inline;overflow:visible;visibility:visible;opacity:1;isolation:auto;mix-blend-mode:normal;color-interpolation:sRGB;color-interpolation-filters:linearRGB;solid-color:#000000;solid-opacity:1;fill:#000000;fill-opacity:1;fill-rule:evenodd;stroke:none;stroke-width:1px;stroke-linecap:round;stroke-linejoin:round;stroke-miterlimit:4;stroke-dasharray:none;stroke-dashoffset:0;stroke-opacity:1;color-rendering:auto;image-rendering:auto;shape-rendering:auto;text-rendering:auto;enable-background:accumulate"></path><path d="m 7.4228369,291.79442 c -0.1145382,-0.0416 -0.2462213,-0.0488 -0.3689615,0.002 -0.096388,0.0399 -0.1567921,0.11503 -0.1953419,0.19069 -0.09562,0.18778 -0.081227,0.38645 -0.078026,0.55707 0.00317,0.17063 -0.00344,0.30808 -0.067178,0.40205 -0.043286,0.0638 -0.1267884,0.10814 -0.2418557,0.15451 -0.1150408,0.0464 -0.2563548,0.0911 -0.37465,0.19999 -0.077973,0.0718 -0.1452827,0.17092 -0.2015331,0.25734 -0.05625,0.0864 -0.097155,0.15917 -0.097155,0.15917 a 0.1323049,0.13230491 0 1 0 0.2299758,0.13074 c 0,0 0.037862,-0.0661 0.089403,-0.14521 0.051514,-0.0792 0.1209411,-0.17253 0.1586442,-0.20722 0.06313,-0.0581 0.1709209,-0.0997 0.2940315,-0.14935 0.1230841,-0.0496 0.2666206,-0.11088 0.3617383,-0.25115 0.1207294,-0.17801 0.1164696,-0.38096 0.1131623,-0.55603 -0.00344,-0.17508 -0.0045,-0.32695 0.049107,-0.43202 0.016404,-0.032 0.045773,-0.0598 0.06096,-0.0661 0.045641,-0.0189 0.1210204,-0.0185 0.1777735,0.002 0.024342,0.009 0.048445,0.0207 0.060987,0.0289 0.043524,0.58171 0.071861,0.87205 0.00265,1.29191 -0.024606,0.14746 -0.082418,0.29597 -0.1529556,0.44131 -0.15621,0.32184 -0.620104,0.96222 -0.620104,0.96222 a 0.1323049,0.13230491 0 0 0 -0.0254,0.0796 l 0.011377,0.94878 a 0.1323049,0.13230491 0 1 0 0.2645833,-0.004 l -0.010848,-0.90951 c 0.034846,-0.0474 0.4416955,-0.59835 0.6180403,-0.9617 0.076465,-0.15756 0.1453091,-0.32906 0.1762389,-0.51366 0.076517,-0.45692 0.045588,-0.77671 0,-1.3746 -0.00635,-0.0866 -0.063156,-0.14414 -0.1090348,-0.17621 -0.045905,-0.0321 -0.090778,-0.0494 -0.1255977,-0.062 z" style="color:#000000;font-style:normal;font-variant:normal;font-weight:normal;font-stretch:normal;font-size:medium;line-height:normal;font-family:sans-serif;text-indent:0;text-align:start;text-decoration:none;text-decoration-line:none;text-decoration-style:solid;text-decoration-color:#000000;letter-spacing:normal;word-spacing:normal;text-transform:none;direction:ltr;writing-mode:lr-tb;baseline-shift:baseline;text-anchor:start;white-space:normal;clip-rule:nonzero;display:inline;overflow:visible;visibility:visible;opacity:1;isolation:auto;mix-blend-mode:normal;color-interpolation:sRGB;color-interpolation-filters:linearRGB;solid-color:#000000;solid-opacity:1;fill:#000000;fill-opacity:1;fill-rule:evenodd;stroke:none;stroke-width:1px;stroke-linecap:round;stroke-linejoin:round;stroke-miterlimit:4;stroke-dasharray:none;stroke-dashoffset:0;stroke-opacity:1;color-rendering:auto;image-rendering:auto;shape-rendering:auto;text-rendering:auto;enable-background:accumulate"></path><path d="m 6.46994,290.17281 c -0.069056,0.0234 -0.1049338,0.0587 -0.1390121,0.0884 -0.034078,0.0297 -0.059425,0.0563 -0.059425,0.0563 a 0.1323049,0.13230491 0 1 0 0.191188,0.18294 c 0,0 0.018256,-0.0188 0.042386,-0.0398 0.024077,-0.021 0.06096,-0.041 0.049609,-0.0372 0.047546,-0.0161 0.078634,-0.01 0.1539875,0.0165 0,2.6e-4 0.027331,0.0161 0.044953,0.0382 0.017727,0.0222 0.027993,0.0481 0.028945,0.0661 0.042254,0.78174 0.026458,1.53944 0.026458,1.53944 a 0.13232224,0.13232225 0 1 0 0.2645833,0.006 c 0,0 0.016404,-0.76486 -0.026458,-1.55908 l 0,-5.2e-4 c -0.00476,-0.0871 -0.04146,-0.16013 -0.086307,-0.21653 -0.044926,-0.0565 -0.096626,-0.0992 -0.1643063,-0.12299 -0.091916,-0.0322 -0.2062691,-0.0583 -0.3266016,-0.0176 z" style="color:#000000;font-style:normal;font-variant:normal;font-weight:normal;font-stretch:normal;font-size:medium;line-height:normal;font-family:sans-serif;text-indent:0;text-align:start;text-decoration:none;text-decoration-line:none;text-decoration-style:solid;text-decoration-color:#000000;letter-spacing:normal;word-spacing:normal;text-transform:none;direction:ltr;writing-mode:lr-tb;baseline-shift:baseline;text-anchor:start;white-space:normal;clip-rule:nonzero;display:inline;overflow:visible;visibility:visible;opacity:1;isolation:auto;mix-blend-mode:normal;color-interpolation:sRGB;color-interpolation-filters:linearRGB;solid-color:#000000;solid-opacity:1;fill:#000000;fill-opacity:1;fill-rule:evenodd;stroke:none;stroke-width:1px;stroke-linecap:round;stroke-linejoin:round;stroke-miterlimit:4;stroke-dasharray:none;stroke-dashoffset:0;stroke-opacity:1;color-rendering:auto;image-rendering:auto;shape-rendering:auto;text-rendering:auto;enable-background:accumulate"></path><path d="m 6.1841635,289.61832 c -0.136869,-0.028 -0.2966244,-0.0106 -0.4160044,0.10129 -0.1163108,0.10879 -0.1167342,0.25331 -0.1188508,0.34985 -0.01614,0.73251 0.042889,2.42259 0.042889,2.42259 a 0.1323736,0.13237361 0 1 0 0.2645834,-0.009 c 0,0 -0.058499,-1.69861 -0.042889,-2.40761 0.00265,-0.0818 0.021167,-0.1492 0.035137,-0.16226 0.029924,-0.028 0.1184539,-0.0487 0.181901,-0.0357 -0.009,-0.002 0.025665,0.0135 0.047043,0.0367 0.021167,0.0231 0.026458,0.054 0.026458,0.0341 a 0.1323049,0.13230491 0 0 0 0,5.3e-4 c 0.00635,1.06213 0.044953,2.5802 0.044953,2.5802 a 0.13233434,0.13233435 0 1 0 0.2645833,-0.007 c 0,0 -0.038735,-1.51694 -0.044953,-2.574 0,-0.0974 -0.046911,-0.15927 -0.096123,-0.21291 -0.049213,-0.0536 -0.1036902,-0.0994 -0.1886215,-0.11679 z" style="color:#000000;font-style:normal;font-variant:normal;font-weight:normal;font-stretch:normal;font-size:medium;line-height:normal;font-family:sans-serif;text-indent:0;text-align:start;text-decoration:none;text-decoration-line:none;text-decoration-style:solid;text-decoration-color:#000000;letter-spacing:normal;word-spacing:normal;text-transform:none;direction:ltr;writing-mode:lr-tb;baseline-shift:baseline;text-anchor:start;white-space:normal;clip-rule:nonzero;display:inline;overflow:visible;visibility:visible;opacity:1;isolation:auto;mix-blend-mode:normal;color-interpolation:sRGB;color-interpolation-filters:linearRGB;solid-color:#000000;solid-opacity:1;fill:#000000;fill-opacity:1;fill-rule:evenodd;stroke:none;stroke-width:1px;stroke-linecap:round;stroke-linejoin:round;stroke-miterlimit:4;stroke-dasharray:none;stroke-dashoffset:0;stroke-opacity:1;color-rendering:auto;image-rendering:auto;shape-rendering:auto;text-rendering:auto;enable-background:accumulate"></path><path d="m 5.5588737,289.88807 c -0.1113102,-0.009 -0.2475971,0.01 -0.342609,0.12454 -0.055695,0.0674 -0.064955,0.14545 -0.066146,0.20257 0,0.0571 0.00344,0.10335 0.00265,0.1292 -0.048313,0.70846 -0.00714,2.09186 -0.00714,2.09186 a 0.1323049,0.13230491 0 1 0 0.2640806,-0.008 c 0,0 -0.038761,-1.39212 0.00714,-2.06655 0.00397,-0.0601 -0.00265,-0.10868 0,-0.14159 0,-0.0329 0.00609,-0.0403 0.00529,-0.0393 0.0082,-0.01 0.068554,-0.0328 0.1188508,-0.0289 -0.011377,-8e-4 0.040428,0.0152 0.07702,0.0377 0.036592,0.0225 0.065114,0.0444 0.065114,0.0444 a 0.1323049,0.13230491 0 1 0 0.1622425,-0.20877 c 0,0 -0.038285,-0.0301 -0.088344,-0.061 -0.050086,-0.0308 -0.1048014,-0.0695 -0.195871,-0.0765 z" style="color:#000000;font-style:normal;font-variant:normal;font-weight:normal;font-stretch:normal;font-size:medium;line-height:normal;font-family:sans-serif;text-indent:0;text-align:start;text-decoration:none;text-decoration-line:none;text-decoration-style:solid;text-decoration-color:#000000;letter-spacing:normal;word-spacing:normal;text-transform:none;direction:ltr;writing-mode:lr-tb;baseline-shift:baseline;text-anchor:start;white-space:normal;clip-rule:nonzero;display:inline;overflow:visible;visibility:visible;opacity:1;isolation:auto;mix-blend-mode:normal;color-interpolation:sRGB;color-interpolation-filters:linearRGB;solid-color:#000000;solid-opacity:1;fill:#000000;fill-opacity:1;fill-rule:evenodd;stroke:none;stroke-width:1px;stroke-linecap:round;stroke-linejoin:round;stroke-miterlimit:4;stroke-dasharray:none;stroke-dashoffset:0;stroke-opacity:1;color-rendering:auto;image-rendering:auto;shape-rendering:auto;text-rendering:auto;enable-background:accumulate"></path><path d="m 5.0147316,290.70508 c -0.056145,-0.002 -0.1283229,-0.002 -0.2041261,0.0186 -0.037888,0.0102 -0.077946,0.0252 -0.1167871,0.0563 -0.038867,0.0312 -0.074586,0.0864 -0.080618,0.14676 -0.048577,0.48558 -0.2575719,1.63595 -0.2118783,2.40709 0.037042,0.62485 0.3592512,1.54046 0.3731154,1.57975 l -0.0082,0.8506 a 0.1323049,0.13230491 0 1 0 0.2645833,0.003 l 0.0082,-0.87126 a 0.1323049,0.13230491 0 0 0 -0.00714,-0.045 c 0,0 -0.3334279,-0.97635 -0.3663686,-1.53221 -0.041328,-0.69712 0.1524,-1.8102 0.2072217,-2.33629 0.00344,-0.001 0.00265,-0.001 0.00661,-0.003 0.030612,-0.008 0.086122,-0.012 0.1245394,-0.0104 -0.00847,-2.6e-4 0.050059,0.0172 0.091969,0.0419 0.041936,0.0247 0.074427,0.0491 0.074427,0.0491 a 0.13234251,0.13234252 0 1 0 0.1586442,-0.21187 c 0,0 -0.043259,-0.0322 -0.099219,-0.0651 -0.055959,-0.0329 -0.1176337,-0.074 -0.2149739,-0.078 z" style="color:#000000;font-style:normal;font-variant:normal;font-weight:normal;font-stretch:normal;font-size:medium;line-height:normal;font-family:sans-serif;text-indent:0;text-align:start;text-decoration:none;text-decoration-line:none;text-decoration-style:solid;text-decoration-color:#000000;letter-spacing:normal;word-spacing:normal;text-transform:none;direction:ltr;writing-mode:lr-tb;baseline-shift:baseline;text-anchor:start;white-space:normal;clip-rule:nonzero;display:inline;overflow:visible;visibility:visible;opacity:1;isolation:auto;mix-blend-mode:normal;color-interpolation:sRGB;color-interpolation-filters:linearRGB;solid-color:#000000;solid-opacity:1;fill:#000000;fill-opacity:1;fill-rule:evenodd;stroke:none;stroke-width:1px;stroke-linecap:round;stroke-linejoin:round;stroke-miterlimit:4;stroke-dasharray:none;stroke-dashoffset:0;stroke-opacity:1;color-rendering:auto;image-rendering:auto;shape-rendering:auto;text-rendering:auto;enable-background:accumulate"></path></g></svg>