<svg height='100px' width='100px'  fill="#000000" xmlns="http://www.w3.org/2000/svg" xmlns:xlink="http://www.w3.org/1999/xlink" version="1.1" x="0px" y="0px" viewBox="0 0 100 100" enable-background="new 0 0 100 100" xml:space="preserve"><g><path d="M78.3,29.2H51.9c0.4-5.7,2.6-10.6,5.6-12.4c0.8,0.7,1.7,1.1,2.8,1.1c2.4,0,4.3-1.9,4.3-4.3c0-2.4-1.9-4.3-4.3-4.3   c-1.8,0-3.4,1.2-4,2.8c-5,2.3-8.6,8.9-9.1,17.1H21.7c-1.3,0-2.3,1.1-2.3,2.3c0,1.3,1.1,2.3,2.3,2.3h5.6v54.4c0,1.3,1.1,2.3,2.3,2.3   h40.8c1.3,0,2.3-1.1,2.3-2.3V33.9h5.6c1.3,0,2.3-1.1,2.3-2.3C80.7,30.3,79.6,29.2,78.3,29.2z M68.1,86H31.9V33.9h36.1V86z"></path><path d="M40.2,53.4h7.5v16.8c0,1.3,1.1,2.3,2.3,2.3s2.3-1.1,2.3-2.3V53.4h7.5c1.3,0,2.3-1.1,2.3-2.3s-1.1-2.3-2.3-2.3h-7.5v-5   c0-1.3-1.1-2.3-2.3-2.3s-2.3,1.1-2.3,2.3v5h-7.5c-1.3,0-2.3,1.1-2.3,2.3S38.9,53.4,40.2,53.4z"></path></g></svg>