<svg height='100px' width='100px'  fill="#000000" xmlns="http://www.w3.org/2000/svg" xmlns:xlink="http://www.w3.org/1999/xlink" version="1.1" x="0px" y="0px" viewBox="0 0 95 95" enable-background="new 0 0 95 95" xml:space="preserve"><g><path d="M78.436,31.547c-1.439-1.129-2.523-2.637-3.078-4.359c-0.553,1.723-1.641,3.23-3.076,4.359   c-1.684,1.318-3.85,2.115-6.209,2.115c-2.361,0-4.525-0.797-6.209-2.115c-1.439-1.129-2.523-2.637-3.078-4.359   c-0.553,1.723-1.639,3.23-3.076,4.359c-1.684,1.318-3.848,2.115-6.209,2.115s-4.525-0.797-6.209-2.115   c-1.439-1.129-2.523-2.637-3.078-4.359c-0.553,1.723-1.639,3.23-3.076,4.359c-1.684,1.318-3.848,2.115-6.209,2.115   s-4.525-0.797-6.209-2.115c-1.439-1.129-2.523-2.637-3.076-4.359c-0.555,1.723-1.641,3.23-3.078,4.359   c-1.684,1.318-3.848,2.115-6.209,2.115v4.453c3.533,0,6.771-1.199,9.287-3.182c2.514,1.982,5.75,3.182,9.285,3.182   c3.533,0,6.771-1.199,9.285-3.182c2.516,1.982,5.752,3.182,9.287,3.182c3.533,0,6.771-1.199,9.285-3.182   c2.516,1.982,5.752,3.182,9.287,3.182c3.533,0,6.771-1.199,9.285-3.182c2.516,1.982,5.752,3.182,9.287,3.182v-4.453   C82.283,33.662,80.119,32.865,78.436,31.547z"></path><path d="M75.357,42.035c-0.553,1.723-1.641,3.232-3.076,4.359c-1.684,1.318-3.85,2.115-6.209,2.115   c-2.361,0-4.525-0.797-6.209-2.115c-1.439-1.127-2.523-2.637-3.078-4.359c-0.553,1.723-1.639,3.232-3.076,4.359   c-1.684,1.318-3.848,2.115-6.209,2.115s-4.525-0.797-6.209-2.115c-1.439-1.127-2.523-2.637-3.078-4.359   c-0.553,1.723-1.639,3.232-3.076,4.359c-1.684,1.318-3.848,2.115-6.209,2.115s-4.525-0.797-6.209-2.115   c-1.439-1.127-2.523-2.637-3.076-4.359c-0.555,1.723-1.641,3.232-3.078,4.359c-1.684,1.318-3.848,2.115-6.209,2.115v4.455   c3.533,0,6.771-1.199,9.287-3.184c2.514,1.984,5.75,3.184,9.285,3.184c3.533,0,6.771-1.199,9.285-3.184   c2.516,1.984,5.752,3.184,9.287,3.184c3.533,0,6.771-1.199,9.285-3.184c2.516,1.984,5.752,3.184,9.287,3.184   c3.533,0,6.771-1.199,9.285-3.184c2.516,1.984,5.752,3.184,9.287,3.184V48.51c-2.361,0-4.525-0.797-6.209-2.115   C76.996,45.268,75.912,43.758,75.357,42.035z"></path><path d="M75.357,56.883c-0.553,1.725-1.641,3.232-3.076,4.359c-1.684,1.32-3.85,2.115-6.209,2.115   c-2.361,0-4.525-0.795-6.209-2.115c-1.439-1.127-2.523-2.635-3.078-4.359c-0.553,1.725-1.639,3.232-3.076,4.359   c-1.684,1.32-3.848,2.115-6.209,2.115s-4.525-0.795-6.209-2.115c-1.439-1.127-2.523-2.635-3.078-4.359   c-0.553,1.725-1.639,3.232-3.076,4.359c-1.684,1.32-3.848,2.115-6.209,2.115s-4.525-0.795-6.209-2.115   c-1.439-1.127-2.523-2.635-3.076-4.359c-0.555,1.725-1.641,3.232-3.078,4.359c-1.684,1.32-3.848,2.115-6.209,2.115v4.455   c3.533,0,6.771-1.199,9.287-3.182c2.514,1.982,5.75,3.182,9.285,3.182c3.533,0,6.771-1.199,9.285-3.182   c2.516,1.982,5.752,3.182,9.287,3.182c3.533,0,6.771-1.199,9.285-3.182c2.516,1.982,5.752,3.182,9.287,3.182   c3.533,0,6.771-1.199,9.285-3.182c2.516,1.982,5.752,3.182,9.287,3.182v-4.455c-2.361,0-4.525-0.795-6.209-2.115   C76.996,60.115,75.912,58.607,75.357,56.883z"></path></g></svg>