<svg height='100px' width='100px'  fill="#000000" xmlns="http://www.w3.org/2000/svg" xmlns:xlink="http://www.w3.org/1999/xlink" version="1.1" x="0px" y="0px" viewBox="0 0 100 100" enable-background="new 0 0 100 100" xml:space="preserve"><path d="M59,10.2c-1.3,0-2,1.1-2,2.3v6.8c0,3.6-3.3,6.7-6.9,6.7h-0.2c-3.6,0-6.9-3-6.9-6.7v-6.8c0-1.3-0.7-2.3-2-2.3  c-1.3,0-2,1.1-2,2.3v46c0,5.5,4,10.1,9,11.1v17.8c0,1.3,0.7,2.3,2,2.3s2-1.1,2-2.3V69.6c6-1.1,9-5.6,9-11.1v-46  C61,11.3,60.3,10.2,59,10.2z M48,64.8c-3-0.9-5-3.4-5-6.2v-2.9c2,0.9,3,1.6,5,1.9V64.8z M48,52.8c-3-0.9-5-3.4-5-6.2v-4.7  c2,0.9,3,1.6,5,1.9V52.8z M48,38.9c-3-0.9-5-3.4-5-6.2v-4.1c2,0.9,3,1.6,5,1.9V38.9z M57,58.5c0,2.8-2,5.2-5,6.2v-7.1  c2-0.3,3-1,5-1.9V58.5z M57,46.5c0,2.8-2,5.2-5,6.2v-9c2-0.3,3-1,5-1.9V46.5z M57,32.6c0,2.8-2,5.2-5,6.2v-8.4c2-0.3,3-1,5-1.9V32.6  z"></path></svg>